<svg width="120" height="40" viewBox="0 0 120 40" fill="none" xmlns="http://www.w3.org/2000/svg">
<rect x="0.5" y="0.5" width="119" height="39" rx="5.5" fill="black"/>
<rect x="0.5" y="0.5" width="119" height="39" rx="5.5" stroke="#A6A6A6"/>
<path d="M24.7045 20.763C24.7166 19.8431 24.9669 18.9411 25.4321 18.141C25.8972 17.3409 26.5621 16.6687 27.3648 16.1869C26.8548 15.4758 26.1821 14.8907 25.4 14.4779C24.6178 14.065 23.7479 13.836 22.8592 13.8088C20.9635 13.6146 19.1258 14.9163 18.1598 14.9163C17.1751 14.9163 15.6878 13.8281 14.0862 13.8603C13.0502 13.893 12.0406 14.1871 11.1557 14.714C10.2708 15.2408 9.54075 15.9825 9.03674 16.8668C6.85352 20.5571 8.48201 25.9808 10.5734 28.9639C11.6197 30.4246 12.8426 32.0562 14.4428 31.9984C16.0086 31.9349 16.5934 31.0235 18.4835 31.0235C20.3561 31.0235 20.9048 31.9984 22.5374 31.9616C24.2176 31.9349 25.2762 30.4944 26.2859 29.0198C27.0377 27.979 27.6162 26.8287 28 25.6115C27.0238 25.2084 26.1908 24.5337 25.6048 23.6715C25.0187 22.8093 24.7056 21.7977 24.7045 20.763Z" fill="white"/>
<path d="M21.6201 11.8471C22.5362 10.7734 22.9875 9.39335 22.8782 8C21.4786 8.14352 20.1857 8.7966 19.2572 9.82911C18.8033 10.3335 18.4556 10.9203 18.234 11.556C18.0125 12.1917 17.9215 12.8638 17.9661 13.5338C18.6662 13.5408 19.3588 13.3927 19.9917 13.1005C20.6246 12.8084 21.1814 12.3798 21.6201 11.8471Z" fill="white"/>
<path d="M36.6152 7.31641H38.6851C40.4736 7.31641 41.3438 8.37988 41.3438 10.3091C41.3438 12.2383 40.4648 13.3149 38.6851 13.3149H36.6152V7.31641ZM37.6128 8.15576V12.4756H38.5752C39.7617 12.4756 40.3198 11.7593 40.3198 10.3223C40.3198 8.87646 39.7573 8.15576 38.5752 8.15576H37.6128Z" fill="white"/>
<path d="M44.499 8.59082C45.7119 8.59082 46.5601 9.37744 46.5601 10.6826V11.2847C46.5601 12.6338 45.7119 13.394 44.499 13.394C43.2686 13.394 42.4292 12.6426 42.4292 11.2891V10.687C42.4292 9.41699 43.2817 8.59082 44.499 8.59082ZM44.5034 9.37744C43.8091 9.37744 43.4136 9.95752 43.4136 10.7354V11.2539C43.4136 12.0317 43.7827 12.6074 44.5034 12.6074C45.2153 12.6074 45.5801 12.0361 45.5801 11.2539V10.7354C45.5801 9.95752 45.1978 9.37744 44.5034 9.37744Z" fill="white"/>
<path d="M53.7231 8.66992L52.5015 13.3149H51.5083L50.5371 9.88721H50.5107L49.5571 13.3149H48.5596L47.2852 8.66992H48.3354L49.0825 12.2119H49.1265L50.0625 8.66992H50.981L51.9434 12.2119H51.9873L52.7476 8.66992H53.7231Z" fill="white"/>
<path d="M54.6899 13.3149V8.66992H55.6479V9.50488H55.6963C55.8149 9.14014 56.1533 8.59961 57.0938 8.59961C58.0298 8.59961 58.6582 9.11816 58.6582 10.1772V13.3149H57.6826V10.4629C57.6826 9.75537 57.3135 9.43018 56.7642 9.43018C56.0435 9.43018 55.6655 9.98389 55.6655 10.7354V13.3149H54.6899Z" fill="white"/>
<path d="M60.1348 13.3149V7H61.1104V13.3149H60.1348Z" fill="white"/>
<path d="M64.459 8.59082C65.6719 8.59082 66.52 9.37744 66.52 10.6826V11.2847C66.52 12.6338 65.6719 13.394 64.459 13.394C63.2285 13.394 62.3892 12.6426 62.3892 11.2891V10.687C62.3892 9.41699 63.2417 8.59082 64.459 8.59082ZM64.4634 9.37744C63.769 9.37744 63.3735 9.95752 63.3735 10.7354V11.2539C63.3735 12.0317 63.7427 12.6074 64.4634 12.6074C65.1753 12.6074 65.54 12.0361 65.54 11.2539V10.7354C65.54 9.95752 65.1577 9.37744 64.4634 9.37744Z" fill="white"/>
<path d="M69.0469 13.3853C68.146 13.3853 67.5264 12.8315 67.5264 11.9658C67.5264 11.144 68.0977 10.5903 69.1699 10.5903H70.3433V10.1553C70.3433 9.62354 70.0049 9.37305 69.4688 9.37305C68.9414 9.37305 68.7041 9.59277 68.6294 9.90039H67.7021C67.7593 9.12256 68.3438 8.59961 69.4995 8.59961C70.4927 8.59961 71.3145 9.0127 71.3145 10.1685V13.3149H70.3872V12.7129H70.3433C70.1367 13.0688 69.7324 13.3853 69.0469 13.3853ZM69.3501 12.6294C69.9038 12.6294 70.3433 12.2515 70.3433 11.7461V11.2451H69.3237C68.7568 11.2451 68.5063 11.5308 68.5063 11.9175C68.5063 12.4009 68.9106 12.6294 69.3501 12.6294Z" fill="white"/>
<path d="M74.3203 8.6084C74.9751 8.6084 75.4761 8.89844 75.6562 9.36865H75.7046V7H76.6802V13.3149H75.731V12.5723H75.6826C75.542 13.0425 74.9839 13.3765 74.3071 13.3765C73.2393 13.3765 72.5449 12.6162 72.5449 11.3901V10.5947C72.5449 9.36865 73.2524 8.6084 74.3203 8.6084ZM74.5928 9.4082C73.9424 9.4082 73.5381 9.8916 73.5381 10.7354V11.2451C73.5381 12.0933 73.9468 12.5767 74.6147 12.5767C75.2739 12.5767 75.7046 12.0977 75.7046 11.3066V10.6035C75.7046 9.88721 75.2344 9.4082 74.5928 9.4082Z" fill="white"/>
<path d="M82.0371 8.59082C83.25 8.59082 84.0981 9.37744 84.0981 10.6826V11.2847C84.0981 12.6338 83.25 13.394 82.0371 13.394C80.8066 13.394 79.9673 12.6426 79.9673 11.2891V10.687C79.9673 9.41699 80.8198 8.59082 82.0371 8.59082ZM82.0415 9.37744C81.3472 9.37744 80.9517 9.95752 80.9517 10.7354V11.2539C80.9517 12.0317 81.3208 12.6074 82.0415 12.6074C82.7534 12.6074 83.1182 12.0361 83.1182 11.2539V10.7354C83.1182 9.95752 82.7358 9.37744 82.0415 9.37744Z" fill="white"/>
<path d="M85.355 13.3149V8.66992H86.313V9.50488H86.3613C86.48 9.14014 86.8184 8.59961 87.7588 8.59961C88.6948 8.59961 89.3232 9.11816 89.3232 10.1772V13.3149H88.3477V10.4629C88.3477 9.75537 87.9785 9.43018 87.4292 9.43018C86.7085 9.43018 86.3306 9.98389 86.3306 10.7354V13.3149H85.355Z" fill="white"/>
<path d="M93.0981 8.70068V7.54053H94.0518V8.70068H95.0933V9.46533H94.0518V11.9307C94.0518 12.436 94.2407 12.5767 94.7637 12.5767C94.8955 12.5767 95.0713 12.5679 95.146 12.5591V13.3062C95.0669 13.3193 94.7417 13.3457 94.522 13.3457C93.3926 13.3457 93.085 12.9414 93.085 12.0098V9.46533H92.3774V8.70068H93.0981Z" fill="white"/>
<path d="M96.3237 13.3149V7H97.2949V9.50488H97.3433C97.4443 9.17529 97.8223 8.59961 98.7539 8.59961C99.6592 8.59961 100.305 9.12256 100.305 10.1816V13.3149H99.334V10.4673C99.334 9.75977 98.9429 9.43018 98.3892 9.43018C97.6904 9.43018 97.2949 9.97949 97.2949 10.7354V13.3149H96.3237Z" fill="white"/>
<path d="M103.579 13.394C102.313 13.394 101.527 12.6162 101.527 11.3066V10.6782C101.527 9.35986 102.388 8.59082 103.522 8.59082C104.687 8.59082 105.508 9.39941 105.508 10.6782V11.2231H102.494V11.4517C102.494 12.1196 102.889 12.6118 103.575 12.6118C104.084 12.6118 104.436 12.3701 104.502 12.0801H105.456C105.398 12.6162 104.832 13.394 103.579 13.394ZM102.494 10.5859H104.555V10.5244C104.555 9.82568 104.146 9.35986 103.526 9.35986C102.907 9.35986 102.494 9.82568 102.494 10.5244V10.5859Z" fill="white"/>
<path d="M38.0303 29.3149H36L40.1309 17.3179H42.3633L46.4854 29.3149H44.376L43.3125 25.9927H39.1025L38.0303 29.3149ZM41.2559 19.3921H41.1768L39.5508 24.4634H42.8643L41.2559 19.3921Z" fill="white"/>
<path d="M52.0886 29.4468C50.8845 29.4468 49.9704 28.8755 49.4782 28.0229H49.4079V32.3999H47.4568V20.0249H49.3552V21.3872H49.4255C49.9353 20.4995 50.8845 19.9019 52.1325 19.9019C54.2155 19.9019 55.7009 21.4751 55.7009 24.2524V25.0786C55.7009 27.8384 54.2331 29.4468 52.0886 29.4468ZM51.6404 27.8384C52.8796 27.8384 53.7234 26.8452 53.7234 24.9731V24.3228C53.7234 22.521 52.9323 21.4927 51.6052 21.4927C50.2429 21.4927 49.3904 22.6001 49.3904 24.314V24.9731C49.3904 26.731 50.2517 27.8384 51.6404 27.8384Z" fill="white"/>
<path d="M62.0073 29.4468C60.8032 29.4468 59.8891 28.8755 59.3969 28.0229H59.3266V32.3999H57.3754V20.0249H59.2739V21.3872H59.3442C59.8539 20.4995 60.8032 19.9019 62.0512 19.9019C64.1342 19.9019 65.6196 21.4751 65.6196 24.2524V25.0786C65.6196 27.8384 64.1518 29.4468 62.0073 29.4468ZM61.559 27.8384C62.7983 27.8384 63.642 26.8452 63.642 24.9731V24.3228C63.642 22.521 62.851 21.4927 61.5239 21.4927C60.1616 21.4927 59.309 22.6001 59.309 24.314V24.9731C59.309 26.731 60.1704 27.8384 61.559 27.8384Z" fill="white"/>
<path d="M69.663 25.9839H71.6141C71.702 27.021 72.6161 27.9087 74.3124 27.9087C75.868 27.9087 76.7909 27.1792 76.7909 26.0454C76.7909 25.1313 76.1757 24.6392 74.8925 24.3315L72.9237 23.8394C71.3768 23.479 69.9882 22.5562 69.9882 20.605C69.9882 18.311 71.9921 17.0542 74.3212 17.0542C76.6503 17.0542 78.5927 18.311 78.6366 20.5522H76.7206C76.6327 19.5327 75.8505 18.689 74.2948 18.689C72.9237 18.689 71.9921 19.3394 71.9921 20.4556C71.9921 21.2378 72.537 21.8003 73.6532 22.0552L75.6132 22.5386C77.4149 22.978 78.786 23.8306 78.786 25.8696C78.786 28.2251 76.8788 29.5522 74.163 29.5522C70.8231 29.5522 69.7069 27.6011 69.663 25.9839Z" fill="white"/>
<path d="M81.1637 20.0249V17.7661H83.0797V20.0249H84.8902V21.5894H83.0797V26.5464C83.0797 27.5571 83.4576 27.8384 84.5035 27.8384C84.6705 27.8384 84.8287 27.8384 84.943 27.8208V29.3149C84.7848 29.3413 84.4156 29.3765 84.0201 29.3765C81.7613 29.3765 81.1373 28.5679 81.1373 26.7046V21.5894H79.8541V20.0249H81.1637Z" fill="white"/>
<path d="M90.1595 19.8667C92.8314 19.8667 94.2816 21.7476 94.2816 24.2788V25.0259C94.2816 27.645 92.8402 29.4731 90.1595 29.4731C87.4788 29.4731 86.0198 27.645 86.0198 25.0259V24.2788C86.0198 21.7563 87.4876 19.8667 90.1595 19.8667ZM90.1595 21.4312C88.7093 21.4312 87.9886 22.6177 87.9886 24.3052V25.0171C87.9886 26.6782 88.7005 27.8999 90.1595 27.8999C91.6185 27.8999 92.3216 26.687 92.3216 25.0171V24.3052C92.3216 22.6089 91.6097 21.4312 90.1595 21.4312Z" fill="white"/>
<path d="M95.9297 29.3149V20.0249H97.8809V21.2466H97.9512C98.1885 20.6665 98.8829 19.8931 100.175 19.8931C100.43 19.8931 100.649 19.9106 100.834 19.9458V21.6685C100.667 21.6245 100.324 21.5981 99.9991 21.5981C98.4346 21.5981 97.9073 22.5649 97.9073 23.813V29.3149H95.9297Z" fill="white"/>
<path d="M105.567 29.4731C103.08 29.4731 101.498 27.8296 101.498 25.0786V24.1382C101.498 21.5454 103.045 19.8667 105.488 19.8667C107.967 19.8667 109.461 21.6069 109.461 24.2261V25.1138H103.423V25.3335C103.423 26.8979 104.266 27.9351 105.594 27.9351C106.587 27.9351 107.263 27.4429 107.501 26.6431H109.355C109.074 28.146 107.861 29.4731 105.567 29.4731ZM103.423 23.7515H107.553V23.7339C107.553 22.4155 106.736 21.3784 105.497 21.3784C104.24 21.3784 103.423 22.4155 103.423 23.7339V23.7515Z" fill="white"/>
</svg>
