<svg width="12" height="10" viewBox="0 0 12 10" fill="none" xmlns="http://www.w3.org/2000/svg">
<path d="M0.50009 4.49483C0.367481 4.49483 0.240304 4.5475 0.146536 4.64127C0.0527678 4.73504 8.96454e-05 4.86222 8.96454e-05 4.99483C8.96454e-05 5.12743 0.0527678 5.25461 0.146536 5.34838C0.240304 5.44215 0.367481 5.49483 0.50009 5.49483L10.1971 5.49483L6.16609 9.12283C6.06979 9.21203 6.01242 9.33552 6.00638 9.46665C6.00034 9.59777 6.04611 9.72602 6.13381 9.82369C6.22151 9.92137 6.3441 9.98064 6.47511 9.98871C6.60613 9.99678 6.73507 9.953 6.83409 9.86683L11.8341 5.36683C11.8863 5.31993 11.9281 5.26258 11.9566 5.19849C11.9852 5.13439 12 5.065 12 4.99483C12 4.92465 11.9852 4.85526 11.9566 4.79117C11.9281 4.72707 11.8863 4.66972 11.8341 4.62283L6.83409 0.122826C6.73507 0.036653 6.60613 -0.00712363 6.47511 0.00094664C6.3441 0.00901691 6.22151 0.0682868 6.13381 0.165961C6.04611 0.263635 6.00034 0.391878 6.00638 0.523006C6.01242 0.654133 6.06979 0.777627 6.16609 0.866826L10.1971 4.49483L0.50009 4.49483Z" fill="#DBBB88"/>
</svg>
