<svg width="14" height="14" viewBox="0 0 14 14" fill="none" xmlns="http://www.w3.org/2000/svg">
<path d="M11.6667 1.33333H9.66667V0.333333C9.66667 0.244928 9.63155 0.160143 9.56904 0.0976311C9.50652 0.035119 9.42174 0 9.33333 0C9.24493 0 9.16014 0.035119 9.09763 0.0976311C9.03512 0.160143 9 0.244928 9 0.333333V1.33333H4.33333V0.333333C4.33333 0.244928 4.29821 0.160143 4.2357 0.0976311C4.17319 0.035119 4.08841 0 4 0C3.91159 0 3.82681 0.035119 3.7643 0.0976311C3.70179 0.160143 3.66667 0.244928 3.66667 0.333333V1.33333H1.66667C1.2248 1.33386 0.801186 1.50963 0.48874 1.82207C0.176294 2.13452 0.000529286 2.55813 0 3V11.6667C0.000529286 12.1085 0.176294 12.5321 0.48874 12.8446C0.801186 13.157 1.2248 13.3328 1.66667 13.3333H11.6667C12.1087 13.3333 12.5326 13.1577 12.8452 12.8452C13.1577 12.5326 13.3333 12.1087 13.3333 11.6667V3C13.3333 2.55797 13.1577 2.13405 12.8452 1.82149C12.5326 1.50893 12.1087 1.33333 11.6667 1.33333ZM12.6667 11.6667C12.6667 11.9319 12.5613 12.1862 12.3738 12.3738C12.1862 12.5613 11.9319 12.6667 11.6667 12.6667H1.66667C1.40145 12.6667 1.1471 12.5613 0.95956 12.3738C0.772023 12.1862 0.666667 11.9319 0.666667 11.6667V6H12.6667V11.6667ZM12.6667 5.33333H0.666667V3C0.666667 2.448 1.11333 2 1.66667 2H3.66667V3C3.66667 3.08841 3.70179 3.17319 3.7643 3.2357C3.82681 3.29821 3.91159 3.33333 4 3.33333C4.08841 3.33333 4.17319 3.29821 4.2357 3.2357C4.29821 3.17319 4.33333 3.08841 4.33333 3V2H9V3C9 3.08841 9.03512 3.17319 9.09763 3.2357C9.16014 3.29821 9.24493 3.33333 9.33333 3.33333C9.42174 3.33333 9.50652 3.29821 9.56904 3.2357C9.63155 3.17319 9.66667 3.08841 9.66667 3V2H11.6667C11.9319 2 12.1862 2.10536 12.3738 2.29289C12.5613 2.48043 12.6667 2.73478 12.6667 3V5.33333Z" fill="white"/>
</svg>
