<svg xmlns="http://www.w3.org/2000/svg" width="107" height="49" viewBox="0 0 107 49" fill="none">
  <path fill-rule="evenodd" clip-rule="evenodd" d="M26.4945 1.36771L24.4321 2.7358L21.613 5.0599L18.7939 7.384L17.2723 9.20226L15.7504 11.0209L14.8911 12.2436L14.0319 13.4664L12.2232 12.1469L10.4144 10.827L8.21406 9.84334L6.01404 8.85967L3.00702 8.71397L0 8.5679L1.82714 9.54222L3.65391 10.5169L5.29762 12.1977L6.94133 13.8788L7.47997 15.6818L8.01898 17.4851L7.71903 18.8069L7.41908 20.1286L6.58876 21.4642L5.75845 22.7994L4.1948 23.8522L2.63114 24.9046L1.87939 25.2326L1.12763 25.561L2.51237 25.6903L3.89673 25.8199L5.33897 25.434L6.78084 25.0481L8.93462 23.7315L11.0884 22.4154L13.2497 21.0858L15.411 19.7562L16.3507 19.9456L17.2904 20.1354L20.1095 20.9281L22.9285 21.7209L25.392 21.512L27.8552 21.3032L29.6207 20.7749L31.3858 20.2471V20.4432V20.6393L29.6827 23.0116L27.9796 25.3839L26.6306 26.4064L25.2815 27.4289L25.6676 27.5567L26.0532 27.6845L28.4611 26.5996L30.869 25.5147L33.3734 23.4028L35.8779 21.2909L37.9155 20.5332L39.9528 19.7756L42.1532 18.3548L44.3536 16.9337L45.9616 15.1887L47.5692 13.4436L47.9455 12.4607L48.3213 11.4778L48.1345 11.2921L47.9477 11.1064L46.9024 11.7412L45.8571 12.3759L46.8618 11.461L47.8662 10.5461L44.1435 8.8055L40.4204 7.06495L37.6776 6.47356L34.9345 5.88179L33.8181 4.3837L32.7014 2.88523L30.8821 1.4428L29.0629 0H28.8099H28.5566L26.4945 1.36771ZM75.7394 0.735225L74.4238 1.4372L72.1802 3.7075L69.937 5.97743H68.7631H67.5896L65.7444 6.52175L63.8992 7.06607L59.6898 9.04348L55.4807 11.0209L55.4611 11.3011L55.442 11.5813H55.934H56.426L57.1556 12.1611L57.8852 12.7409L57.0395 12.5347L56.1937 12.3285L55.442 12.1166L54.6902 11.9044V12.2821V12.6595L56.7948 14.9189L58.8993 17.1784L61.5872 18.833L64.2751 20.4876L66.2424 21.119L68.2098 21.7504L69.8133 23.1506L71.4168 24.5508L73.4841 25.8427L75.5514 27.1342L77.5004 27.9505L79.4497 28.7664H80.0939H80.7385L79.2023 27.6606L77.6661 26.5544L75.5988 23.8387L73.5315 21.1227L73.6435 21.0114L73.7559 20.9001L74.8245 21.3039L75.8935 21.7078L78.4976 22.0328L81.1017 22.3578L83.3911 21.9913L85.681 21.6249L88.0445 20.6853L90.4076 19.7453L91.692 20.1664L92.976 20.5878L95.3519 22.1202L97.7282 23.6527L99.7238 24.5657L101.719 25.4788L104.046 25.6555L106.373 25.8322L104.317 24.6715L102.26 23.5111L101.407 22.7142L100.554 21.9177L99.7989 20.3674L99.0438 18.8173L99.0472 17.534L99.0509 16.2511L100.135 14.3832L101.219 12.5152L102.115 11.6874L103.012 10.8591L105.006 9.77534L107 8.69156L106.043 8.50962L105.085 8.32768L103.003 8.65233L100.92 8.97698L98.8153 9.90199L96.7107 10.827L94.8212 12.2059L92.9317 13.5845L92.1724 12.4895L91.4131 11.3945L87.993 8.02321L84.5725 4.65194L81.0708 2.32597L77.5695 0L77.312 0.0164375L77.0549 0.0328749L75.7394 0.735225ZM67.0423 11.1307L67.4276 12.9146L67.1265 14.2405L66.8258 15.5664L66.3781 16.2825L65.9308 16.9983L66.1733 16.1223L66.4157 15.2462L66.4048 12.4854L66.3939 9.72491L66.1222 9.28781L65.8504 8.85071L66.2541 9.0984L66.6574 9.34646L67.0423 11.1307ZM42.2111 9.78804L42.6621 10.2364V10.9727V11.7094L42.0401 12.3923L41.418 13.0756H40.8481H40.2779L39.5908 12.4573L38.9034 11.8391V11.3119V10.7852L39.2924 10.0623L39.6814 9.33974H40.7207H41.76L42.2111 9.78804ZM64.7551 9.92142L65.5907 10.5027V11.2929V12.083L64.9686 12.7659L64.3465 13.4492H63.3523H62.3581L61.9071 13.0009L61.456 12.5526V11.5279V10.5027L62.2916 9.92142L63.1268 9.33974H63.5233H63.9199L64.7551 9.92142ZM39.7303 10.1616L39.2792 10.6099V11.2077V11.8054L39.7303 12.2537L40.1813 12.702H40.8121H41.4424L41.9062 12.1465L42.3701 11.591L42.1333 10.6522L41.8961 9.71333H41.0387H40.1813L39.7303 10.1616ZM62.4897 10.1168L61.8319 10.4975V11.3384V12.179L62.283 12.6273L62.734 13.0756H63.6064H64.4792L64.9273 12.0979L65.3757 11.1199L64.5018 10.4168L63.6278 9.71333L63.3877 9.72453L63.1475 9.73611L62.4897 10.1168ZM37.6588 12.9822L37.487 13.636V12.3285V11.0209L37.6588 11.6747L37.831 12.3285L37.6588 12.9822ZM72.5797 12.8335L72.3366 14.1206L71.5784 15.0784L70.8206 16.0363L69.6152 16.8747L68.4098 17.713L69.7663 16.1988L71.1225 14.6847L71.7938 12.9378L72.4651 11.1909L72.6436 11.3687L72.8226 11.5465L72.5797 12.8335ZM35.9527 14.8244L36.3643 15.3172H36.1249H35.8854L35.1404 14.103L34.3955 12.8888L34.409 12.3285L34.4221 11.7681L34.9818 13.0499L35.5415 14.3316L35.9527 14.8244ZM44.7058 19.8354L41.3466 22.1124L38.7154 24.1922L36.0843 26.2723L32.8262 29.5973L29.5681 32.9222L27.9397 32.1007L26.3114 31.2792L23.3988 29.4265L20.4861 27.5739L18.6022 26.8626L16.7187 26.1513H15.9936H15.2685L18.1767 29.0466L21.0849 31.9419L21.9129 33.6477L22.7406 35.3531V36.4907V37.6283L21.7987 39.0076L20.8567 40.3873L19.8253 41.2914L18.7939 42.1958L17.1445 42.8365L15.4952 43.4772L16.2048 43.7541L16.9145 44.0309L18.02 44.0574L19.1254 44.0836L18.3958 44.632L17.6663 45.1804L18.6819 45.1924L19.6979 45.2043L22.6286 43.6532L25.5597 42.1017L27.627 41.0466L29.6943 39.9916L31.5918 39.5982L33.4892 39.2052L35.9144 40.2916L38.3395 41.378L40.3313 41.7968L42.3231 42.2156L45.0298 42.2126L47.7365 42.2096L50.6495 41.517L53.5626 40.824V41.0922V41.3605L51.2445 43.8747L48.9265 46.3894L46.9047 47.5232L44.8832 48.657L45.0557 48.8285L45.2282 49L47.6098 48.4034L49.9917 47.8068L52.247 46.711L54.5023 45.6149L57.0575 43.3551L59.6127 41.0948H60.1825H60.7528L62.7021 40.2815L64.651 39.4682L67.0942 37.8995L69.5374 36.3312L71.1834 34.634L72.829 32.9364L72.5963 32.0144L72.3636 31.0924L69.6347 29.0174L66.9062 26.9429L64.463 25.8117L62.0198 24.6808L59.2008 24.2097L56.3817 23.7382L54.5023 21.7056L52.6229 19.6728L51.157 18.616L49.691 17.5587H48.878H48.0654L44.7058 19.8354ZM61.8451 28.3681L61.456 29.091V31.3688V33.647L62.0198 34.9885L62.5837 36.3297L61.995 35.844L61.4064 35.3587L60.8674 34.3224L60.3284 33.2864L60.3299 31.6804L60.331 30.074L61.076 28.8598L61.821 27.6456H62.0274H62.2341L61.8451 28.3681ZM56.3636 32.8411L56.988 34.0411L58.3765 35.6068L59.7646 37.1722L59.0128 36.6305L58.2611 36.0887L57.1939 35.1361L56.1264 34.1834L55.5965 33.1747L55.0661 32.1657L55.1105 30.186L55.1544 28.206L55.4469 29.9234L55.7389 31.6408L56.3636 32.8411ZM66.6345 29.3481L67.4701 29.9294V31.0079V32.0865L66.6345 32.6678L65.7993 33.2495H65.1584H64.5175L63.7387 32.2651L62.9595 31.2806V30.9407V30.6003L63.8823 29.6836L64.8047 28.7664H65.302H65.7993L66.6345 29.3481ZM64.557 29.5371L63.7113 29.8633V30.9829V32.1025L64.4882 32.5157L65.2652 32.9289L66.2026 32.3185L67.1404 31.708L67.0231 30.9336L66.9062 30.1595L66.1545 29.6854L65.4027 29.211L64.557 29.5371Z" fill="#DCC49F"/>
</svg>