<svg xmlns="http://www.w3.org/2000/svg" width="101" height="65" viewBox="0 0 101 65" fill="none">
  <path fill-rule="evenodd" clip-rule="evenodd" d="M44.8198 0.512848L43.7376 1.0138L43.0108 1.79172L42.2838 2.56965L41.9962 3.33108L41.7083 4.09251V5.5096V6.9267L42.5251 8.2145L43.342 9.50203L44.5942 10.0557L45.8461 10.6094L47.2972 10.4893L48.7485 10.3689L49.7604 9.56424L50.7723 8.75954L51.3987 7.55802L52.0253 6.35651L51.9168 4.92697L51.8086 3.49743L51.0161 2.35732L50.2239 1.2172L49.0204 0.608602L47.8166 0L46.8594 0.0059506L45.9021 0.0119012L44.8198 0.512848ZM14.2424 1.72491L13.8211 2.36814L13.5598 3.2786L13.2987 4.18907L13.2665 5.4079L13.2343 6.627L12.8669 5.27455L12.4992 3.9221L12.6155 5.40979L12.7318 6.89748L12.9131 8.24993L13.0941 9.60238L12.8238 9.33189L12.5535 9.0614L12.0919 7.63917L11.6304 6.21693L11.3822 6.3703L11.1341 6.52367L11.1414 7.25156L11.1487 7.97944L11.9531 9.86503L12.7575 11.7506L12.747 12.4347L12.7364 13.1187L11.7997 11.2253L10.8628 9.33189L11.0159 10.8196L11.169 12.3073L11.8722 13.9302L12.5755 15.5532L12.6723 17.4466L12.7692 19.34L12.5276 18.9343L12.2859 18.5285L11.9632 17.1761L11.6401 15.8236L11.1279 14.8769L10.6157 13.9302L10.6076 15.1474L10.5995 16.3646L10.9737 17.7171L11.3482 19.0695L12.0527 20.9015L12.7575 22.7336V26.3541V29.9748L9.84894 29.9416L6.94034 29.9083L5.5875 30.5199L4.23466 31.1315L2.91807 32.4038L1.60149 33.676L0.80061 34.7579L0 35.8399L3.58989 35.9751L7.18006 36.1104L7.67303 37.7333L8.16601 39.3562L8.81375 42.0611L9.46176 44.766L9.88763 47.6062L10.3135 50.4463L10.5778 53.1512L10.8425 55.8561L11.0232 58.8991L11.2037 61.9421H11.7102H12.2164L12.2151 57.2762L12.2134 52.6102L11.6696 48.9067L11.1258 45.2031L10.4428 42.8477L9.76019 40.492L8.77019 38.4366L7.78018 36.3809L7.67601 36.178L7.57157 35.9751H10.2927H13.0138L13.0963 39.9648L13.1791 43.9546L13.2389 39.9648L13.2987 35.9751H14.01H14.7213L14.5444 38.0714L14.3674 40.1677L14.1071 46.1185L13.8469 52.0692L13.8068 55.5856L13.7668 59.102L13.546 56.6676L13.3255 54.2332L13.0368 51.8783L12.7481 49.5237L12.3146 47.6054L11.8814 45.687L11.761 45.8071L11.6409 45.9275L12.1845 50.2156L12.7278 54.5037L13.0203 57.2086L13.3127 59.9134L13.4648 60.9278L13.6169 61.9421H13.9591H14.3011L14.4732 59.1696L14.6453 56.3971L14.8268 46.1861L15.0084 35.9751H16.3363H17.6643L17.5185 36.4485L17.3723 36.9218L16.96 38.7182L16.5474 40.5142L16.1277 43.9927L15.7081 47.4709L15.5463 53.1526L15.3842 58.8342L15.5785 60.3882L15.7728 61.9421H16.7969H17.8212L17.9871 60.3868L18.1532 58.8315L18.7195 56.6676L19.2861 54.5037L20.0948 52.0782L20.9038 49.6524L21.9539 47.4122L23.0039 45.1718H22.9182H22.8321L21.7342 46.8623L20.6362 48.5529L20.0531 49.9053L19.4698 51.2578L19.2176 51.904L18.9655 52.5499L18.8137 52.3982L18.6619 52.2464L19.2249 49.304L19.788 46.3616L20.7174 42.9943L21.6468 39.6267L22.3148 37.8685L22.9826 36.1104H47.6538H72.3247L73.1358 38.0038L73.9473 39.8972L75.1202 43.4136L76.2931 46.9299L76.9876 50.0471L77.6822 53.1639L78.2006 56.2683L78.719 59.3725L78.8995 60.6573L79.0799 61.9421H79.6365H80.1931L80.0088 59.5753L79.8245 57.2086L79.4284 54.6389L79.0321 52.0692L78.2063 48.9586L77.3805 45.848L76.1843 42.9278L74.9884 40.0073L73.8737 37.9767L72.7589 35.9462L74.3242 36.0284L75.8894 36.1104L76.9384 39.221L77.9877 42.3316L79.0724 46.6267L80.1571 50.9221L80.8013 54.7414L81.4455 58.561L81.6338 60.2516L81.8221 61.9421H82.0987H82.3749L82.2158 59.1696L82.057 56.3971L81.616 53.442L81.1749 50.4872L80.2834 46.9502L79.3922 43.4136L77.9003 39.6943L76.4086 35.9751H79.1857H81.9626L82.1133 36.8542L82.2637 37.7333L82.4566 43.9546L82.6498 50.1758L82.8674 49.3827L83.0849 48.5894L82.83 42.4853L82.5754 36.3809L82.5697 36.178L82.564 35.9751H84.9992H87.4343V36.063V36.1509L86.75 38.1593L86.0655 40.1677L85.5536 42.3316L85.0414 44.4955L84.7478 45.9832L84.4542 47.4709L84.0457 50.7168L83.6371 53.9627L83.4642 57.9524L83.2916 61.9421H83.9764H84.6612L84.9883 58.3581L85.3155 54.7741L85.6997 51.3362L86.0841 47.8983L86.7565 44.3035L87.4289 40.7087L88.0403 38.4095L88.6518 36.1104L90.6134 36.0308L92.5751 35.9513V36.1044V36.2575L91.4895 38.4163L90.4038 40.5748L89.0504 44.6265L87.6967 48.6784L87.03 51.4558L86.3634 54.2332L85.8179 57.479L85.2727 60.7249L85.2711 61.3335L85.2697 61.9421H85.7981H86.3266L86.6082 60.9278L86.8902 59.9134L86.8915 59.6056L86.8931 59.2978L87.5831 56.9007L88.2733 54.5037L88.9711 52.7455L89.6686 50.9873L91.0163 47.8767L92.3637 44.766L93.5737 42.5345L94.7834 40.303H94.6592H94.5348L93.0502 42.5345L91.5658 44.766L90.5366 46.6595L89.5071 48.5529L89.4178 48.6657L89.3282 48.7782L89.1829 48.633L89.0374 48.4874L90.6543 43.6078L92.2709 38.7282L92.9687 37.3516L93.6665 35.9751H96.8838H100.101L99.6209 34.4198L99.1404 32.8645L98.4028 31.0473L97.6652 29.2302L96.6168 28.2832L95.5686 27.3365L94.0277 26.3135L92.4866 25.2908L90.4341 25.2635L88.3813 25.2361L86.7584 24.4349L85.1352 23.6338L85.0362 23.1196L84.9372 22.6051L85.4312 20.4317L85.9256 18.258L86.5446 17.3411L87.1637 16.4244V16.1385V15.8529L86.2167 16.7704L85.2697 17.6879V17.3803V17.0728L85.5582 16.8945L85.8466 16.7163L86.6404 15.6208L87.4343 14.5253L87.4256 14.0925L87.4172 13.6597L86.7635 14.4019L86.1101 15.1444L85.8455 15.617L85.5809 16.0895L85.4161 15.9251L85.2516 15.7603L86.4348 14.3043L87.6183 12.8483L87.9321 12.2575L88.246 11.6665V11.4939V11.3213L87.5079 11.9018L86.7698 12.4823L86.2919 13.2061L85.8144 13.9302L85.8128 13.4409L85.8109 12.9516L85.5403 13.1187L85.2697 13.2859V12.2781V11.2705L85.0819 11.4582L84.8942 11.6459L84.9586 13.6632L85.023 15.6806L84.5711 15.5072L84.119 15.3338L84.283 17.2018L84.4467 19.0695L84.4364 20.9565L84.4258 22.8434L84.2916 22.9776L84.1577 23.1117L82.7521 22.3378L81.3465 21.5637L81.1219 21.3635L80.8973 21.1631L80.3949 19.3048L79.8927 17.4466L80.0461 19.2516L80.1993 21.0565L79.0142 20.6754L77.8291 20.2946L77.085 20.1501L76.3413 20.006L75.3264 18.6897L74.3117 17.3735L73.5558 16.9143L72.7998 16.4552L71.9597 16.7479L71.1196 17.0408L70.4158 17.0392L69.7121 17.0379L67.8498 15.5515L65.9874 14.0655H65.8746H65.7621L64.9866 14.4663L64.2112 14.8672L62.0066 16.7655L59.802 18.6638H59.4741H59.1464L57.1239 20.703L55.1014 22.742L54.1163 22.5775L53.1311 22.413L49.7439 24.1755L46.3564 25.9381L44.9116 24.9232L43.467 23.9083L41.4377 22.33L39.4085 20.7517L38.3262 20.2548L37.2439 19.7576L36.1281 19.7517L35.012 19.7457L33.8599 20.152L32.7079 20.5586L31.1881 21.4368L29.668 22.3154L28.165 22.871L26.6618 23.4263L23.6568 25.5083L20.6516 27.5902L18.6194 28.5418L16.5869 29.4931L15.0717 29.7974L13.5563 30.1017L13.4185 29.9638L13.2806 29.8258L13.8201 24.3124L14.3596 18.799L14.9243 17.3424L15.4889 15.8859L15.4002 15.449L15.3114 15.0122L14.5078 16.4839L13.7045 17.9556L13.6217 17.2578L13.5389 16.5596L14.5295 14.6167L15.52 12.6738L15.6486 11.544L15.7768 10.4138L15.4735 10.8196L15.1705 11.2253L14.352 12.808L13.5338 14.3906L13.3836 14.2407L13.2337 14.0906L13.4085 13.1585L13.5836 12.2264L14.293 11.185L15.0024 10.1434L15.3948 9.20909L15.7874 8.27455L15.2871 8.66811L14.7868 9.0614L14.4705 9.46714L14.1545 9.87287L13.708 10.4138L13.2619 10.9548L13.4288 10.1434L13.5958 9.33189L14.6648 8.32838L15.7338 7.32486V6.89884V6.47282L15.2043 6.75602L14.6748 7.03949L14.4007 7.50933L14.1269 7.97944L14.1185 7.41087L14.1104 6.8423L14.776 5.92318L15.4416 5.00406L16.0092 3.96971L16.5769 2.93562L16.4806 2.07628L16.3842 1.2172L15.6334 2.77252L14.8823 4.32783H14.8174H14.7522L14.8696 2.7049L14.987 1.08196H14.8255H14.664L14.2424 1.72491ZM89.3236 5.41845L89.0295 5.96808L88.5701 5.8918L88.1107 5.81553L87.3666 7.28401L86.6226 8.75277V9.4125V10.0722L87.6372 9.32188L88.6518 8.57155L89.1194 8.00487L89.5869 7.43846L89.5929 7.21288L89.5988 6.98729L88.5452 7.82148L87.4916 8.65567H87.3206H87.1499L87.5368 7.91182L87.924 7.16797L88.651 6.49175L89.378 5.81553L89.6332 5.34217L89.8883 4.86881H89.753H89.6178L89.3236 5.41845ZM14.0024 6.34325L13.7229 7.54693L13.6193 7.44333L13.5154 7.33974L13.7016 6.23938L13.8874 5.1393H14.0847H14.2817L14.0024 6.34325ZM27.2489 6.63565L26.7237 7.03273H26.2524H25.7811L24.7856 8.24723L23.7902 9.46173L23.5694 9.32513L23.3487 9.1888L23.1744 9.73763L23.0002 10.2864L22.7834 10.1526L22.5667 10.0187L21.8281 12.0433L21.0894 14.0682L20.8467 14.218L20.604 14.3679L20.5545 13.6081L20.505 12.8483L20.5461 12.172L20.587 11.4958L20.328 11.9015L20.0688 12.3073L20.1248 15.1474L20.1806 17.9876L19.8594 18.5285L19.5382 19.0695L19.5109 18.258L19.4836 17.4466L19.2631 16.9056L19.0426 16.3646L18.8413 17.1317L18.6397 17.8988L18.7804 19.6503L18.9208 21.4014L18.4127 24.6987L17.9046 27.9957V28.2662V28.5367L19.2644 24.4836L20.6243 20.4306L21.2555 19.7501L21.8868 19.0695L22.3589 18.3257L22.8308 17.5818H22.5499H22.2688L21.4249 18.2916L20.5813 19.0016L20.4436 18.8642L20.3061 18.7265L21.6982 17.4103L23.0905 16.0941L23.3449 15.6208L23.5992 15.1474H23.3679H23.1365L22.0056 16.1152L20.8746 17.083V16.6719V16.261L22.456 15.0444L24.0378 13.8277L24.4915 13.1352L24.9455 12.4425H24.6509H24.3565L23.7653 12.7455L23.1744 13.0484L22.2951 13.8804L21.4157 14.7125V14.5064V14.3005L21.6912 13.7858L21.9669 13.271L23.12 12.5953L24.2735 11.9197L25.0597 11.099L25.846 10.2786H25.6515H25.4569L24.557 10.6546L23.6568 11.0306L23.0775 11.6522L22.498 12.274V12.0701V11.8661L22.7932 11.3146L23.0884 10.7633L24.7553 10.0076L26.4226 9.2521L26.9426 8.67731L27.4629 8.10279L26.5362 8.48201L25.6095 8.86124L24.9353 9.06789L24.261 9.27455L24.619 8.84339L24.9769 8.41223L26.1369 7.85096L27.2968 7.28969L27.7803 6.75548L28.2638 6.22126L28.0189 6.22992L27.7741 6.23857L27.2489 6.63565ZM86.1055 9.73763L86.0755 10.6843L85.9085 11.7663L85.7413 12.8483L87.0146 11.6311L88.2876 10.4138L88.5593 9.91723L88.8309 9.42088L88.7078 9.29754L88.5845 9.17447L87.7132 9.90722L86.842 10.6402L86.5898 11.2031L86.3377 11.7663L86.4424 10.9548L86.5471 10.1434L86.3412 9.46714L86.1353 8.79091L86.1055 9.73763ZM21.5237 38.5302L20.3129 41.0849L19.1365 44.6838L17.9598 48.2824L17.502 50.852L17.0442 53.4217L16.8017 54.3684L16.559 55.3151L16.6965 51.393L16.8342 47.4709L17.0993 44.0898L17.3648 40.7087L17.6556 38.68L17.9462 36.6513L18.049 36.3132L18.1519 35.9751H20.443H22.7342L21.5237 38.5302ZM59.1599 39.762L58.3482 39.9684L62.0685 40.0005L65.7888 40.0325V39.762V39.4915L62.8802 39.5234L59.9716 39.5556L59.1599 39.762ZM36.2293 40.7714L37.3792 40.875L38.5291 40.7714L39.679 40.6678H37.3792H35.0794L36.2293 40.7714ZM53.7486 41.9259L53.5814 42.1964L59.3469 42.149L65.1124 42.1017L61.8656 41.9151L58.6188 41.7287L56.2673 41.6922L53.9158 41.6554L53.7486 41.9259ZM70.7118 43.8193L71.6726 45.5775L73.1748 49.3644L74.677 53.1512L75.5084 56.2618L76.3402 59.3725L76.6172 60.5058L76.8943 61.6389L77.4498 61.8153L78.0052 61.9916L78.1492 61.8474L78.2931 61.7036L77.6979 58.9151L77.1029 56.1266L76.2834 53.5569L75.4638 50.9873L74.3802 48.8234L73.2966 46.6595L71.9524 44.7103L70.6079 42.7612L70.1793 42.4111L69.7508 42.0611L70.7118 43.8193ZM96.557 43.7563L94.722 45.307L93.2239 47.3108L91.7257 49.3146L90.5723 51.6386L89.4192 53.9627L88.8388 55.5856L88.2587 57.2086L87.7113 59.2318L87.1637 61.2551V61.7525V62.2502L87.7324 62.1639L88.3012 62.0774L89.2338 58.9924L90.1665 55.9078L91.4546 53.0216L92.7428 50.1358L94.5453 47.3855L96.3481 44.6348L97.4723 43.4157L98.5965 42.1964L98.4943 42.201L98.3923 42.2056L96.557 43.7563ZM60.9186 43.5488L59.1599 43.726L63.9465 43.7725L68.7332 43.8193L68.9004 43.5488L69.0676 43.2783L65.8724 43.3251L62.6773 43.3717L60.9186 43.5488ZM5.58885 46.8623L6.74282 50.1758L7.56886 53.8274L8.39491 57.479L8.71337 59.7106L9.03183 61.9421H9.67713H10.3224L10.3214 59.8458L10.3203 57.7495L9.92389 55.307L9.52778 52.8645L8.82836 50.4382L8.12921 48.0119L7.56372 46.4501L6.99851 44.8883L6.93222 44.9624L6.86593 45.0365L8.03154 49.6689L9.19714 54.3011L9.34406 56.5664L9.49125 58.8315L9.22474 57.479L8.95823 56.1266L8.43008 53.8274L7.9022 51.5283L7.25257 49.6348L6.60294 47.7414L5.61591 45.6451L4.62887 43.5488H4.53174H4.43461L5.58885 46.8623ZM2.35556 46.3019L3.58205 48.6494L4.36318 50.7896L5.14458 52.9297L5.59697 54.6635L6.04909 56.3971L6.50256 59.102L6.95603 61.8069L7.55696 61.8934L8.15789 61.9797L8.15248 61.082L8.14707 60.1839L7.87785 58.2905L7.60864 56.3971L7.0583 54.2332L6.50797 52.0692L5.31909 49.6348L4.13022 47.2004L2.62965 45.5775L1.12908 43.9546L2.35556 46.3019ZM13.3896 45.9832V48.0119L13.4957 46.9976L13.602 45.9832L13.4957 44.9689L13.3896 43.9546V45.9832ZM25.1753 45.7804L24.0521 47.2004L23.0965 48.6881L22.1408 50.1758L21.2785 52.0692L20.4162 53.9627L19.7068 56.1266L18.9977 58.2905L18.7087 59.643L18.4197 60.9954L18.276 61.4688L18.1324 61.9421H18.6803H19.2279L20.0645 59.1696L20.9008 56.3971L21.7288 54.2332L22.5567 52.0692L24.5473 48.2148L26.5381 44.3603H26.4182H26.2987L25.1753 45.7804ZM67.5678 45.5775L68.3498 46.9299L69.2556 48.4176L70.1618 49.9053L71.7459 53.1512L73.3304 56.3971L74.2268 59.0341L75.1234 61.6711L75.4917 61.6714L75.8602 61.6716L75.6754 60.6573L75.4906 59.643L74.7087 57.2924L73.927 54.9416L72.5812 52.2608L71.2354 49.5797L69.6241 47.4433L68.0129 45.307L67.3995 44.766L66.7862 44.2251L67.5678 45.5775ZM38.1909 45.8769L36.7028 46.2759L36.2969 46.6803L35.8911 47.0847L36.2883 47.3303L36.6855 47.5759L38.4501 47.7647L40.2145 47.9535L43.4643 47.7744L46.7138 47.5954L48.5434 47.237L50.373 46.8783L50.5648 46.6865L50.7566 46.4947L50.3724 46.2575L49.9882 46.02L48.3288 45.7311L46.6694 45.4423L43.1742 45.4601L39.679 45.478L38.1909 45.8769ZM98.1696 48.3814L95.5115 50.7563L93.8786 53.0357L92.2458 55.3151L90.8226 58.2905L89.3991 61.2659L89.2371 61.7393L89.0747 62.2126L89.6072 62.2532L90.1399 62.2938L90.3845 62.3208L90.6291 62.3479L92.6614 58.2905L94.6939 54.2332L96.0253 52.1961L97.3571 50.1591L99.1785 48.0711L101 45.9832L100.914 45.9949L100.827 46.0065L98.1696 48.3814ZM29.6867 47.2061L28.3525 48.1288L27.0224 49.4228L25.6926 50.7168L24.4033 52.6102L23.1141 54.5037L22.1552 56.4074L21.1963 58.3108L20.4942 60.0379L19.7923 61.7649V61.8534V61.9421H20.5713H21.35L21.6979 61.063L22.0456 60.1839L23.59 57.0449L25.1341 53.9061L26.5273 51.842L27.9207 49.7779L29.5693 48.0157L31.2181 46.2537L31.1196 46.2686L31.0209 46.2835L29.6867 47.2061ZM67.4977 50.1699L69.0508 52.0576L70.4131 54.7982L71.7757 57.5391L72.4077 59.5377L73.0398 61.5364L73.6082 61.6229L74.1764 61.7092L74.171 61.3525L74.1659 60.9954L73.3674 58.7325L72.5693 56.4698L71.7186 54.9456L70.8679 53.4217L69.7784 51.9949L68.6891 50.5683L67.317 49.4252L65.945 48.2824L67.4977 50.1699ZM29.6586 50.3787L28.3815 51.7988L27.2373 53.4217L26.093 55.0446L25.2248 56.6489L24.3565 58.2529L23.698 59.8737L23.0391 61.4945V61.8534V62.2126H23.2434H23.4477L24.0949 60.522L24.7418 58.8315L25.5484 57.2086L26.3552 55.5856L27.49 53.8274L28.625 52.0692L29.8937 50.5139L31.1624 48.9586H31.049H30.9356L29.6586 50.3787ZM54.0979 50.132L52.2826 50.4693L52.0986 50.653L51.9149 50.8369L52.5957 51.0958L53.2767 51.3546L56.0768 51.68L58.8772 52.0054L61.5891 51.8607L64.3007 51.716L65.0448 51.426L65.7888 51.1361V50.9021V50.6684L65.0448 50.3046L64.3007 49.9405L60.1069 49.8677L55.9131 49.7947L54.0979 50.132ZM0.867982 51.2578L1.49895 52.3397L2.29009 53.9589L3.0815 55.578L3.99629 58.3698L4.91108 61.1618V61.5518V61.9421H5.5875H6.26392V61.8209V61.6995L5.55909 59.4542L4.85426 57.2086L3.91241 55.3151L2.97029 53.4217L2.34745 52.6102L1.72487 51.7988L0.981079 50.9873L0.237289 50.1758L0.867982 51.2578ZM30.7287 53.6659L29.3615 54.5864L27.6101 56.4774L25.8587 58.3687L24.9902 60.1496L24.1214 61.9308V62.0717V62.2126H24.6563H25.1912L25.6401 61.4688L26.089 60.7249L27.5351 58.538L28.9816 56.3508L30.634 54.5483L32.2863 52.7455H32.1911H32.0958L30.7287 53.6659ZM49.0136 53.2865V53.5569L50.84 53.5299L52.6663 53.5031L53.3427 53.2865L54.0191 53.0698L51.5164 53.043L49.0136 53.016V53.2865ZM67.5627 54.9043L69.089 56.9278L70.2064 59.2997L71.3236 61.6716H71.6677H72.0119V61.4793V61.2867L70.862 58.9981L69.7121 56.7095L67.8741 54.795L66.0364 52.8807L67.5627 54.9043ZM98.7908 54.5434L98.1217 54.9886L96.8113 56.234L95.501 57.479L94.4828 58.9667L93.465 60.4544L92.9944 61.3695L92.5239 62.2843L92.8797 62.5042L93.2355 62.7238L94.2204 60.8526L95.2052 58.9813L95.9647 57.9597L96.7239 56.9381L98.2345 55.518L99.7451 54.0982L99.6025 54.0979H99.4597L98.7908 54.5434ZM65.5183 54.4157V54.5799L66.5848 55.8702L67.6512 57.1604L68.6817 59.4136L69.7121 61.6668L70.0503 61.6692L70.3885 61.6716V61.3619V61.0522L69.4588 59.1304L68.5294 57.2086L67.0237 55.7301L65.5183 54.2516V54.4157ZM65.6952 57.9207L66.5286 58.9037L67.1733 60.2764L67.8181 61.6494L68.021 61.6605L68.224 61.6716V61.3792V61.0871L67.2902 59.6808L66.3565 58.2746L65.6092 57.6062L64.8619 56.9381L65.6952 57.9207ZM29.1732 58.9329L28.003 60.5218L27.6493 61.376L27.2954 62.2299L27.4873 62.422L27.6794 62.6137L27.9369 62.1536L28.1945 61.6933L29.8783 61.832L31.562 61.9708L32.3737 61.7325L33.1854 61.4945L31.2454 61.3127L29.3057 61.1309L28.878 61.2948L28.4505 61.459V61.1158V60.7725L29.1645 59.5315L29.8785 58.2905L30.2887 57.8172L30.6989 57.3438H30.5211H30.3434L29.1732 58.9329ZM71.4256 62.9932L66.6455 63.1593L66.4696 63.3351L66.2937 63.5112L67.1912 63.7928L68.0887 64.0747L70.5238 64.3633L72.9589 64.6519L77.8521 64.8258L82.7453 65L86.6023 64.6584L90.4595 64.3167L91.1789 64.0993L91.8986 63.8821L87.8401 63.8534L83.7816 63.825L80.9406 63.4328L78.0997 63.0406L77.1527 62.934L76.2057 62.8274L71.4256 62.9932ZM17.8983 63.5615L16.6808 63.7955L12.2164 63.8537L7.75204 63.9118L9.24016 64.1204L10.7283 64.3289L16.0044 64.521L21.2804 64.7133L24.7781 64.4068L28.2757 64.1004L28.4083 63.9681L28.5406 63.8355L28.428 63.7244L28.3152 63.6129L23.7155 63.4701L19.1159 63.3276L17.8983 63.5615Z" fill="#DCC49F"/>
</svg>