<svg width="27" height="27" viewBox="0 0 27 27" fill="none" xmlns="http://www.w3.org/2000/svg">
<path fill-rule="evenodd" clip-rule="evenodd" d="M18.3 26.6667V16.34H21.7667L22.2853 12.316H18.2987V9.74667C18.2987 8.58133 18.6227 7.78667 20.2947 7.78667H22.4253V4.18667C21.3935 4.07581 20.3564 4.02239 19.3187 4.02667C16.2467 4.02667 14.144 5.90267 14.144 9.34667V12.316H10.6667V16.34H14.1427V26.6667H1.472C0.658667 26.6667 0 26.008 0 25.1947V1.472C0 0.658667 0.658667 0 1.472 0H25.1947C26.008 0 26.6667 0.658667 26.6667 1.472V25.1947C26.6667 26.008 26.008 26.6667 25.1947 26.6667H18.3Z" fill="white" fill-opacity="0.8"/>
</svg>
