<svg width="120" height="40" viewBox="0 0 120 40" fill="none" xmlns="http://www.w3.org/2000/svg">
<rect x="0.5" y="0.5" width="119" height="39" rx="5.5" fill="black"/>
<rect x="0.5" y="0.5" width="119" height="39" rx="5.5" stroke="#A6A6A6"/>
<path d="M17.8051 18.4617L8.08984 29.0059C8.09076 29.0078 8.09076 29.0106 8.09167 29.0125C8.39005 30.1574 9.41203 31 10.6256 31C11.1111 31 11.5664 30.8656 11.957 30.6305L11.988 30.6118L22.9232 24.1593L17.8051 18.4617Z" fill="#EA4335"/>
<path d="M27.6332 16.6662L27.624 16.6597L22.9029 13.8612L17.584 18.7013L22.922 24.1582L27.6177 21.3878C28.4407 20.9324 29.0001 20.045 29.0001 19.0223C29.0001 18.0052 28.4489 17.1225 27.6332 16.6662Z" fill="#FBBC04"/>
<path d="M8.08942 8.99325C8.03102 9.21346 8 9.44488 8 9.68376V28.3163C8 28.5552 8.03102 28.7866 8.09034 29.0059L18.1386 18.7313L8.08942 8.99325Z" fill="#4285F4"/>
<path d="M17.8771 19L22.9049 13.8594L11.9825 7.3836C11.5856 7.14005 11.122 7.00009 10.6265 7.00009C9.41295 7.00009 8.38914 7.84456 8.09076 8.99043C8.09076 8.99136 8.08984 8.9923 8.08984 8.99323L17.8771 19Z" fill="#34A853"/>
<path d="M43.61 10.03C43.61 11.03 43.3133 11.8267 42.72 12.42C42.0533 13.1267 41.1767 13.48 40.09 13.48C39.05 13.48 38.17 13.12 37.45 12.4C36.73 11.68 36.37 10.7933 36.37 9.74C36.37 8.68667 36.73 7.8 37.45 7.08C38.17 6.36 39.05 6 40.09 6C40.6167 6 41.1133 6.09333 41.58 6.28C42.0467 6.46667 42.43 6.73 42.73 7.07L42.07 7.73C41.85 7.46333 41.5633 7.25667 41.21 7.11C40.8633 6.95667 40.49 6.88 40.09 6.88C39.31 6.88 38.65 7.15 38.11 7.69C37.5767 8.23667 37.31 8.92 37.31 9.74C37.31 10.56 37.5767 11.2433 38.11 11.79C38.65 12.33 39.31 12.6 40.09 12.6C40.8033 12.6 41.3967 12.4 41.87 12C42.3433 11.6 42.6167 11.05 42.69 10.35H40.09V9.49H43.56C43.5933 9.67667 43.61 9.85667 43.61 10.03Z" fill="white"/>
<path d="M48.9078 6.16V7.04H45.6478V9.31H48.5878V10.17H45.6478V12.44H48.9078V13.32H44.7278V6.16H48.9078Z" fill="white"/>
<path d="M52.5877 7.04V13.32H51.6677V7.04H49.6677V6.16H54.5877V7.04H52.5877Z" fill="white"/>
<path d="M58.6654 13.32H57.7454V6.16H58.6654V13.32Z" fill="white"/>
<path d="M62.5487 7.04V13.32H61.6287V7.04H59.6287V6.16H64.5487V7.04H62.5487Z" fill="white"/>
<path d="M74.521 9.74C74.521 10.8 74.1677 11.6867 73.461 12.4C72.7477 13.12 71.8743 13.48 70.841 13.48C69.801 13.48 68.9277 13.12 68.221 12.4C67.5143 11.6867 67.161 10.8 67.161 9.74C67.161 8.68 67.5143 7.79333 68.221 7.08C68.9277 6.36 69.801 6 70.841 6C71.881 6 72.7544 6.36333 73.461 7.09C74.1677 7.80333 74.521 8.68667 74.521 9.74ZM68.101 9.74C68.101 10.5667 68.361 11.25 68.881 11.79C69.4077 12.33 70.061 12.6 70.841 12.6C71.621 12.6 72.271 12.33 72.791 11.79C73.3177 11.2567 73.581 10.5733 73.581 9.74C73.581 8.90667 73.3177 8.22333 72.791 7.69C72.271 7.15 71.621 6.88 70.841 6.88C70.061 6.88 69.4077 7.15 68.881 7.69C68.361 8.23 68.101 8.91333 68.101 9.74Z" fill="white"/>
<path d="M76.5267 13.32H75.6067V6.16H76.7267L80.2067 11.73H80.2467L80.2067 10.35V6.16H81.1267V13.32H80.1667L76.5267 7.48H76.4867L76.5267 8.86V13.32Z" fill="white"/>
<path d="M93.5181 29.7297H95.1469V18.7181H93.5181V29.7297ZM108.189 22.6846L106.322 27.4588H106.266L104.328 22.6846H102.573L105.479 29.3571L103.823 33.069H105.521L110 22.6846H108.189ZM98.9519 28.4788C98.4177 28.4788 97.6739 28.2102 97.6739 27.5434C97.6739 26.6942 98.6001 26.3683 99.4005 26.3683C100.116 26.3683 100.454 26.5242 100.889 26.7365C100.762 27.7565 99.892 28.4788 98.9519 28.4788ZM99.1483 22.4441C97.969 22.4441 96.7469 22.9682 96.2424 24.1301L97.6879 24.7388C97.9969 24.1301 98.5721 23.931 99.1762 23.931C100.019 23.931 100.875 24.441 100.889 25.3483V25.4611C100.594 25.291 99.9627 25.0365 99.1902 25.0365C97.632 25.0365 96.0451 25.9006 96.0451 27.5152C96.0451 28.9889 97.323 29.9384 98.7546 29.9384C99.8501 29.9384 100.454 29.4425 100.833 28.8611H100.889V29.7112H102.461V25.4892C102.461 23.5346 101.015 22.4441 99.1483 22.4441ZM89.0821 24.0253H86.7655V20.2508H89.0821C90.2998 20.2508 90.9911 21.2682 90.9911 22.1376C90.9911 22.9911 90.2998 24.0253 89.0821 24.0253ZM89.0402 18.7181H85.1375V29.7297H86.7655V25.5579H89.0402C90.8453 25.5579 92.6199 24.2384 92.6199 22.1376C92.6199 20.0368 90.8453 18.7181 89.0402 18.7181ZM67.7583 28.4806C66.6332 28.4806 65.6913 27.5302 65.6913 26.2248C65.6913 24.9052 66.6332 23.9398 67.7583 23.9398C68.8695 23.9398 69.7406 24.9052 69.7406 26.2248C69.7406 27.5302 68.8695 28.4806 67.7583 28.4806ZM69.6289 23.3012H69.5722C69.2064 22.8617 68.5038 22.4644 67.6178 22.4644C65.7611 22.4644 64.0599 24.1098 64.0599 26.2248C64.0599 28.3247 65.7611 29.9569 67.6178 29.9569C68.5038 29.9569 69.2064 29.5597 69.5722 29.1051H69.6289V29.6451C69.6289 31.0782 68.8695 31.8446 67.6457 31.8446C66.6471 31.8446 66.0282 31.1205 65.7751 30.5101L64.3549 31.1064C64.7626 32.1 65.8458 33.32 67.6457 33.32C69.5582 33.32 71.1757 32.1846 71.1757 29.4178V22.6908H69.6289V23.3012ZM72.3008 29.7297H73.9323V18.7173H72.3008V29.7297ZM76.3362 26.097C76.2943 24.6498 77.4474 23.9116 78.2766 23.9116C78.9243 23.9116 79.4725 24.2376 79.6549 24.7062L76.3362 26.097ZM81.3989 24.848C81.0899 24.0112 80.1472 22.4644 78.2208 22.4644C76.3083 22.4644 74.7196 23.9821 74.7196 26.2107C74.7196 28.3106 76.2943 29.9569 78.4032 29.9569C80.1053 29.9569 81.0899 28.9069 81.4976 28.2965L80.2319 27.4447C79.8103 28.0693 79.2333 28.4806 78.4032 28.4806C77.5739 28.4806 76.983 28.0974 76.6033 27.3461L81.5674 25.2734L81.3989 24.848ZM41.8501 23.6139V25.203H45.6184C45.5058 26.097 45.2107 26.7497 44.7612 27.2034C44.2121 27.7574 43.3541 28.3679 41.8501 28.3679C39.5291 28.3679 37.7152 26.4802 37.7152 24.1389C37.7152 21.7967 39.5291 19.9099 41.8501 19.9099C43.1018 19.9099 44.0157 20.4067 44.6905 21.0454L45.8017 19.924C44.8589 19.0159 43.6081 18.32 41.8501 18.32C38.6719 18.32 36 20.9317 36 24.1389C36 27.3461 38.6719 29.9569 41.8501 29.9569C43.5653 29.9569 44.8589 29.3888 45.8715 28.3247C46.9129 27.2747 47.2358 25.7993 47.2358 24.6066C47.2358 24.2376 47.2079 23.8975 47.1512 23.6139H41.8501ZM51.5208 28.4806C50.3957 28.4806 49.425 27.5443 49.425 26.2107C49.425 24.8621 50.3957 23.9398 51.5208 23.9398C52.6451 23.9398 53.6158 24.8621 53.6158 26.2107C53.6158 27.5443 52.6451 28.4806 51.5208 28.4806ZM51.5208 22.4644C49.4669 22.4644 47.7936 24.0394 47.7936 26.2107C47.7936 28.3679 49.4669 29.9569 51.5208 29.9569C53.5739 29.9569 55.2472 28.3679 55.2472 26.2107C55.2472 24.0394 53.5739 22.4644 51.5208 22.4644ZM59.65 28.4806C58.5249 28.4806 57.5542 27.5443 57.5542 26.2107C57.5542 24.8621 58.5249 23.9398 59.65 23.9398C60.7752 23.9398 61.745 24.8621 61.745 26.2107C61.745 27.5443 60.7752 28.4806 59.65 28.4806ZM59.65 22.4644C57.597 22.4644 55.9237 24.0394 55.9237 26.2107C55.9237 28.3679 57.597 29.9569 59.65 29.9569C61.7031 29.9569 63.3764 28.3679 63.3764 26.2107C63.3764 24.0394 61.7031 22.4644 59.65 22.4644Z" fill="white"/>
</svg>
