<svg width="26" height="26" viewBox="0 0 26 26" fill="none" xmlns="http://www.w3.org/2000/svg">
<path d="M18.2963 0C20.1626 0 21.9525 0.7414 23.2722 2.0611C24.5919 3.3808 25.3333 5.1707 25.3333 7.03704V18.2963C25.3333 20.1626 24.5919 21.9525 23.2722 23.2722C21.9525 24.5919 20.1626 25.3333 18.2963 25.3333H7.03704C5.1707 25.3333 3.3808 24.5919 2.0611 23.2722C0.7414 21.9525 0 20.1626 0 18.2963V7.03704C0 5.1707 0.7414 3.3808 2.0611 2.0611C3.3808 0.7414 5.1707 0 7.03704 0H18.2963ZM12.6667 7.03704C11.1736 7.03704 9.74168 7.63016 8.68592 8.68592C7.63016 9.74168 7.03704 11.1736 7.03704 12.6667C7.03704 14.1597 7.63016 15.5917 8.68592 16.6474C9.74168 17.7032 11.1736 18.2963 12.6667 18.2963C14.1597 18.2963 15.5917 17.7032 16.6474 16.6474C17.7032 15.5917 18.2963 14.1597 18.2963 12.6667C18.2963 11.1736 17.7032 9.74168 16.6474 8.68592C15.5917 7.63016 14.1597 7.03704 12.6667 7.03704ZM12.6667 9.85185C13.4132 9.85185 14.1292 10.1484 14.657 10.6763C15.1849 11.2042 15.4815 11.9201 15.4815 12.6667C15.4815 13.4132 15.1849 14.1292 14.657 14.657C14.1292 15.1849 13.4132 15.4815 12.6667 15.4815C11.9201 15.4815 11.2042 15.1849 10.6763 14.657C10.1484 14.1292 9.85185 13.4132 9.85185 12.6667C9.85185 11.9201 10.1484 11.2042 10.6763 10.6763C11.2042 10.1484 11.9201 9.85185 12.6667 9.85185ZM19 4.92593C18.6267 4.92593 18.2688 5.07421 18.0048 5.33815C17.7409 5.60209 17.5926 5.96007 17.5926 6.33333C17.5926 6.7066 17.7409 7.06458 18.0048 7.32852C18.2688 7.59246 18.6267 7.74074 19 7.74074C19.3733 7.74074 19.7312 7.59246 19.9952 7.32852C20.2591 7.06458 20.4074 6.7066 20.4074 6.33333C20.4074 5.96007 20.2591 5.60209 19.9952 5.33815C19.7312 5.07421 19.3733 4.92593 19 4.92593Z" fill="white" fill-opacity="0.8"/>
</svg>
