<svg xmlns="http://www.w3.org/2000/svg" width="86" height="63" viewBox="0 0 86 63" fill="none">
  <path fill-rule="evenodd" clip-rule="evenodd" d="M32.0962 1.60827L31.1274 3.21655L30.0307 5.32394L28.934 7.43134L26.6201 12.1075L24.3062 16.7835L23.368 17.1897L22.4298 17.5959L20.79 18.3281L19.1502 19.0602L17.6293 19.8687L16.1084 20.6775L13.9537 22.0402L11.799 23.4032L9.46195 25.2887L7.12489 27.1743L4.53617 29.8363L1.94766 32.4982L0.97383 33.8086L0 35.1187L0.173601 35.2944L0.346984 35.4703L3.29865 36.018L6.25032 36.566L8.31933 36.8162L10.3883 37.0664L10.4743 37.1534L10.56 37.2405L7.42137 37.1281L4.28254 37.0158L3.30302 37.2026L2.32351 37.3894L4.06827 38.9118L5.81304 40.4345L7.83525 41.9675L9.85769 43.5004L11.6615 44.6382L13.4655 45.7759L16.3079 47.1551L19.1502 48.5344L21.4481 49.3141L23.7463 50.0937L24.5419 50.2452L25.3375 50.3967L25.7195 51.4297L26.1015 52.463L26.7519 53.794L27.4024 55.125L28.5678 56.9465L29.7333 58.7677L31.4304 60.5698L33.1275 62.3722L33.7258 62.6861L34.3242 63H34.6502H34.9764L36.1735 61.9372L37.3705 60.8744L38.6459 60.4705L39.9212 60.0665L40.1945 59.8422L40.4678 59.6182L40.4669 59.3682L40.4663 59.118L38.3328 56.8996L36.1992 54.6813L35.1476 53.2714L34.0957 51.8614L33.9848 51.5684L33.874 51.2753L34.8205 51.1571L35.767 51.0387L37.4068 50.902L39.0466 50.7651L40.7243 50.4441L42.4019 50.1232L44.8726 51.8095L47.3432 53.4959L49.107 54.3499L50.8708 55.2042L51.4633 55.355L52.0558 55.5059L52.5648 55.3763L53.0738 55.2466L53.6609 54.6946L54.2479 54.1425L55.3484 52.6676L56.4488 51.1924L57.3209 49.4326L58.1931 47.6728L58.8429 45.7049L59.4925 43.7373L59.6351 42.3549L59.7774 40.9722L58.595 41.1235L57.4126 41.2748L58.6151 40.1727L59.8176 39.0706L60.9108 38.4464L62.004 37.8222H63.6439H65.2837L66.4499 38.4777L67.6164 39.1332L70.8359 42.2488L74.0556 45.3644L75.9009 47.0712L77.7463 48.7777L79.2768 50.0324L80.8073 51.2871L81.5404 51.6103L82.2735 51.9335L82.8522 51.8654L83.431 51.7975L83.8131 51.0211L84.1955 50.2447L84.1949 48.2482L84.1945 46.2518L83.8619 44.1444L83.5291 42.037L82.7892 39.2641L82.0491 36.4912L81.7826 35.1063L81.5163 33.7214L81.6265 31.3352L81.7367 28.9489L82.5516 26.287L83.3662 23.625L84.5467 19.6704L85.7269 15.7158L85.8636 14.8494L86 13.9827L85.611 13.8312L85.2221 13.6799L84.2172 13.9501L83.2123 14.2205L81.4632 15.3361L79.714 16.4516L77.6369 18.1207L75.5598 19.7895L73.8107 21.3732L72.0616 22.9568L69.8373 25.1401L67.6131 27.3236L66.8857 27.883L66.1582 28.4425L65.065 28.9709L63.9718 29.4991L62.8563 29.5013L61.7408 29.5035L60.9978 28.9973L60.2549 28.4911L60.1959 27.7218L60.1368 26.9525L59.7918 25.2887L59.4466 23.625L58.5934 21.7641L57.7405 19.9031L56.5585 18.1038L55.3766 16.3046L53.9267 14.5836L52.4771 12.8626L51.033 11.6539L49.5887 10.4454L48.5925 9.97019L47.5964 9.49525L45.9452 9.09529L44.294 8.69533L42.7635 8.34084L41.233 7.98636L39.6737 7.21062L38.1143 6.43487L36.7721 4.979L35.4299 3.52312L34.421 1.76156L33.4122 0H33.2386H33.065L32.0962 1.60827ZM32.4622 3.2862L32.5722 3.46677L30.4909 7.33462L28.4095 11.2025L27.658 12.6998L26.9065 14.1972H26.5812H26.2561V14.1306V14.0639L27.9505 10.8546L29.645 7.64518L30.8475 5.37874L32.0501 3.11251L32.2012 3.10896L32.3522 3.10563L32.4622 3.2862ZM34.5645 4.87806V5.09768L33.5513 6.70817L32.5379 8.31866L30.4575 11.147L28.3769 13.9754H28.2273H28.078L27.951 13.8465L27.8239 13.7174L29.7364 11.129L31.6489 8.54049L32.9146 6.59947L34.1801 4.65845H34.3723H34.5645V4.87806ZM36.9308 6.51695L36.8602 6.82263L33.7684 10.3435L30.6766 13.8644L30.1223 14.3868L29.5681 14.9093L29.3186 14.7526L29.0691 14.5963L30.4601 13.1213L31.8511 11.6461L34.2175 8.9287L36.5841 6.21127H36.7929H37.0017L36.9308 6.51695ZM38.5807 7.71706L38.6872 7.89186L35.359 11.4185L32.0306 14.9452L31.7641 14.7779L31.4973 14.6109L34.8347 11.08L38.1721 7.54935L38.3231 7.5458L38.4742 7.54225L38.5807 7.71706ZM40.1352 8.2002L40.2658 8.41449L38.5212 10.3631L36.7769 12.3116L35.5669 13.6371L34.357 14.9627L34.1423 14.7449L33.9273 14.5268L35.0708 13.3083L36.2141 12.0898L38.0437 10.0379L39.8731 7.98592H39.9389H40.0047L40.1352 8.2002ZM41.4388 8.63033L41.5612 8.83109L40.768 9.79495L39.9745 10.7588L38.2186 12.6998L36.4629 14.6408H36.1514H35.8398L35.9128 14.4425L35.9856 14.2442L37.8644 12.1688L39.743 10.0933L40.456 9.26144L41.169 8.42958H41.2429H41.3166L41.4388 8.63033ZM42.8729 9.26987V9.44467L41.4716 11.2109L40.0703 12.9771L39.0873 13.9454L38.1043 14.9137L37.8677 14.8327L37.6311 14.7518L39.2467 12.9161L40.8624 11.0805L41.5945 10.0946L42.3263 9.10882L42.5996 9.10195L42.8729 9.09507V9.26987ZM44.4034 9.60484V9.89277L42.5996 12.3025L40.7958 14.7121L40.4236 14.9459L40.0515 15.1797L39.9179 15.0441L39.7843 14.9086L41.1683 13.1666L42.5526 11.4243L43.2964 10.3706L44.0402 9.3169H44.2219H44.4034V9.60484ZM45.79 10.4256L45.4299 11.0443L43.9873 12.9969L42.5449 14.9494L42.2443 15.0448L41.9436 15.14L42.0276 14.8844L42.1115 14.6289L43.8587 12.1146L45.6059 9.6004L45.8781 9.70378L46.1501 9.80715L45.79 10.4256ZM47.5404 10.4968L47.3909 10.7588L45.7686 13.0326L44.1465 15.3063H43.8375H43.5288V15.1972V15.0881L45.4025 12.5317L47.2761 9.9753L47.4831 10.1051L47.6902 10.2348L47.5404 10.4968ZM48.9854 11.0361L48.976 11.2025L47.2861 13.293L45.5963 15.3835L45.3278 15.4743L45.0593 15.5652V15.3303V15.0954L46.7457 12.9824L48.4321 10.8697H48.7134H48.9948L48.9854 11.0361ZM50.0874 11.8125L50.0867 12.0898L48.7209 13.7371L47.355 15.3844L47.0817 15.4747L46.8084 15.5652V15.3272V15.0892L48.2678 13.3121L49.7273 11.5352H49.9077H50.088L50.0874 11.8125ZM51.2523 12.7253L51.2906 12.9061L49.8694 14.5333L48.4482 16.1606L48.1568 16.177L47.8651 16.1937L47.9421 15.9594L48.019 15.7252L49.4363 14.0818L50.8533 12.4387L51.0337 12.4915L51.2141 12.5445L51.2523 12.7253ZM51.0004 15.0388L50.1016 16.128L49.7765 16.4017L49.4514 16.6755L49.2218 16.5315L48.9922 16.3875L50.2457 14.9656L51.4992 13.5437L51.6992 13.7466L51.8993 13.9496L51.0004 15.0388ZM52.9273 14.3636L52.9243 14.5299L51.816 15.8055L50.7077 17.081H50.3979H50.088V16.9454V16.8097L51.2359 15.5175L52.3838 14.2256L52.6571 14.2114L52.9304 14.1972L52.9273 14.3636ZM53.5863 15.3534V15.6222L52.6663 16.5734L51.7462 17.5246H51.4637H51.1813V17.3658V17.2072L52.2115 16.1457L53.242 15.0845H53.414H53.5863V15.3534ZM82.8749 16.4918L82.5564 16.7866L77.3378 21.2039L72.1191 25.6215L71.5438 26.1366L70.9684 26.6519L71.2963 26.4835L71.6243 26.3151L77.4979 22.3446L83.3717 18.374L83.5921 18.5976L83.8127 18.8215L77.2812 23.1995L70.7497 27.5776L70.5311 27.7974L70.3124 28.0173L71.515 27.3453L72.7175 26.6732L77.3809 24.0784L82.0445 21.4837L82.4046 21.6239L82.7645 21.7641L80.9113 22.8133L79.0581 23.8624L75.0756 26.0623L71.0932 28.2622L71.1584 28.3283L71.2235 28.3946L75.3596 26.4848L79.4954 24.5751L80.6496 24.0445L81.8036 23.5141H81.9068H82.0098V23.8076V24.101L80.4246 24.832L78.8395 25.5631L74.576 27.5053L70.3124 29.4472L69.8472 29.5927L69.3819 29.738L69.2763 29.1772L69.1705 28.6162L69.4136 28.6011L69.6565 28.5863L69.1646 28.3456L68.6726 28.1047V27.9673V27.8298L73.2094 23.9143L77.7463 19.9987L80.2606 17.8964L82.775 15.7941L82.9843 15.9956L83.1935 16.1968L82.8749 16.4918ZM54.4609 16.3898V16.5856L53.5857 17.388L52.7104 18.1901H52.4925H52.2745V18.0331V17.876L53.0841 17.0348L53.8937 16.1937H54.1773H54.4609V16.3898ZM35.8993 17.7775L36.987 18.2525L37.5249 19.1835L38.0627 20.1147V21.0788V22.0431L37.6235 22.9635L37.1842 23.8841L36.6466 24.3965L36.1092 24.909L36.6488 25.5596L37.1884 26.2104L37.3272 27.0911L37.4661 27.9716L37.9735 27.488L38.481 27.0042L39.0652 26.1488L39.6496 25.2932L39.9374 24.0372L40.2251 22.7809L40.0163 21.6631L39.8073 20.5453L39.4817 20.0411L39.1559 19.5367L39.5703 19.3117L39.9846 19.0868L40.2234 19.3785L40.4619 19.6704L40.7929 20.6219L41.1237 21.5733V22.6006V23.6279L40.9119 24.3774L40.7 25.1272L40.8397 24.9853L40.9794 24.8435L41.4687 25.1687L41.9583 25.4941L42.194 25.206L42.4297 24.9176L42.7607 23.9662L43.0915 23.0147L43.0906 22.4324L43.09 21.8504L42.6488 21.1165L42.2078 20.3825L41.5577 20.0074L40.9079 19.632L40.9099 19.5211L40.9119 19.4102L41.1178 19.0795L41.3238 18.7489L42.0438 19.1746L42.7635 19.6005L43.1584 20.0529L43.5535 20.5052L43.7308 20.2141L43.9081 19.9229L44.5383 20.2556L45.1686 20.5881L45.6459 21.1083L46.1234 21.6285L46.3565 22.253L46.5898 22.8774V23.6465V24.4156L46.2657 25.2027L45.9417 25.9895L46.6033 26.5543L47.2649 27.1193L47.6926 27.9698L48.1203 28.8203V29.336V29.8516L48.7863 30.2506L49.4525 30.6499L49.8058 30.354L50.1591 30.0581L50.5811 29.0927L51.0028 28.1271L50.8686 27.4003L50.7341 26.6738L50.1923 26.0807L49.6505 25.4873L48.9946 25.2555L48.3389 25.0234L48.3422 24.8788L48.3457 24.7342L48.5398 24.4229L48.734 24.1119L49.7933 24.6448L50.8526 25.1778L51.345 25.9316L51.8372 26.6854V27.6579V28.6304L51.4976 29.4547L51.1583 30.279L51.5899 30.6337L52.0215 30.9882L52.4752 31.7433L52.9289 32.4982L52.9295 33.4481L52.9304 34.398L52.6083 35.1804L52.2861 35.9626L51.8313 36.5595L51.3765 37.1567L50.5848 37.7661L49.7931 38.3754L49.8421 39.6516L49.8911 40.9278L49.2633 41.9261L48.6356 42.9243L47.8231 43.3675L47.0104 43.8107L46.8014 43.4784L46.5924 43.1461L47.083 42.8163L47.5737 42.4862L48.1679 41.8575L48.7622 41.2288L48.9074 40.4436L49.0526 39.6585L48.6842 38.8743L48.3155 38.0902L47.8673 39.0096L47.4191 39.9289L46.8207 40.4396L46.2222 40.9504L46.0683 41.9272L45.9144 42.9039L45.462 43.6464L45.0099 44.3888L44.4768 44.7433L43.9436 45.0976L43.6939 44.8442L43.4442 44.5909L44.0063 43.9795L44.5686 43.368L44.814 42.8835L45.0593 42.3988V41.5485V40.698L44.4884 39.8457L43.9175 38.9935L43.5393 39.8497L43.1608 40.706L42.8046 41.005L42.4485 41.304L42.8794 42.1608L43.3101 43.0175V43.9917V44.966L42.8132 45.714L42.3164 46.4623L41.7278 46.7975L41.1393 47.1327L40.8607 46.85L40.5824 46.5676L41.2851 46.0095L41.9878 45.4516L42.2364 44.6095L42.4852 43.7675L42.0005 42.6803L41.5158 41.5933L41.2053 42.474L40.8946 43.3546L40.3123 43.9713L39.7301 44.588H39.471H39.2119L39.0665 45.5095L38.9213 46.431L38.0542 47.3108L37.1871 48.1908L36.87 47.9239L36.5532 47.6571L36.1601 47.7815L35.767 47.906L35.4185 47.0657L35.0697 46.2254L34.2706 45.7469L33.4713 45.2684V45.6027V45.9368L33.0552 46.7598L32.6393 47.5827L32.0875 48.1052L31.5358 48.6276L31.301 48.4803L31.0662 48.333V48.0477V47.7624L31.4956 47.3682L31.925 46.9738L32.2897 46.0049L32.6546 45.0357L32.5263 44.2338L32.3979 43.4318L32.0455 42.8859L31.6928 42.34L31.3629 42.6179L31.033 42.8957L30.8565 42.6062L30.6801 42.3167L30.4251 43.1002L30.1704 43.8835L29.6065 44.4556L29.0429 45.0277L29.5079 46.1244L29.973 47.2214V47.7902V48.3592H29.5757H29.1782L28.8122 47.1945L28.4462 46.0299L28.0085 45.3644L27.5708 44.6989L27.5694 45.4419L27.5679 46.1848L27.2277 46.9121L26.8873 47.6398L26.3859 48.1178L25.8844 48.5958L25.6098 48.26L25.3351 47.9244L25.8863 47.2598L26.4378 46.5952L26.5788 45.943L26.72 45.2906L26.4789 44.382L26.2377 43.4731L25.5949 42.7302L24.9521 41.9875L25.4184 41.5687L25.885 41.1496L26.5077 40.1634L27.1306 39.1771V37.9224V36.6678L26.6387 35.9311L26.1467 35.1944L25.9281 35.1227L25.7095 35.0511L25.3146 36.0253L24.9197 36.9994L24.5196 37.367L24.1193 37.7343L24.4225 38.7563L24.7256 39.7783V41.2069V42.6355L24.3716 43.3924L24.0174 44.1495L23.365 44.7065L22.7125 45.2635L22.9441 45.5468L23.1758 45.8301L23.3228 46.762L23.4697 47.6937H23.0252H22.5807L22.286 46.7509L21.9912 45.8081L21.2813 45.8778L20.5714 45.9474V45.5949V45.2424L21.1718 45.0111L21.7719 44.7795L22.4639 44.244L23.1559 43.7082L23.5335 42.7056L23.9111 41.7027L23.7668 40.4573L23.6225 39.2122L23.1691 38.1425L22.7154 37.0728L22.8706 36.8182L23.0258 36.5635L23.4577 36.678L23.8893 36.7927L24.449 35.5524L25.0085 34.3124V32.809V31.3057L24.7313 30.6264L24.4538 29.9472H24.3335H24.2133L23.8176 30.3105L23.422 30.6739L23.1446 30.4405L22.8671 30.2069L22.8487 32.5728L22.8302 34.9384L22.4443 36.0475L22.0584 37.1567L21.4225 38.2164L20.7867 39.2763L21.0347 40.2752L21.2826 41.2743L21.1777 42.2191L21.0727 43.1639L20.7078 43.9314L20.3429 44.6989L19.9209 45.2535L19.4989 45.8081L19.1183 45.4245L18.7376 45.0408L19.2027 44.5372L19.6677 44.0335L19.9008 43.409L20.1341 42.7845V41.5789V40.3732H19.9421H19.7504L19.4782 40.706L19.206 41.0387H18.9178H18.6294L18.4925 40.8142L18.3559 40.5895L19.3634 39.4278L20.3709 38.2658L21.0568 36.8608L21.7426 35.4557L21.8397 33.0686L21.9366 30.6817L21.5655 28.8234L21.1945 26.9653L20.6315 25.7581L20.0687 24.5511L19.3181 23.7082L18.5675 22.8652L18.7079 22.6352L18.848 22.4049H19.0912H19.3345L19.7265 22.765L20.1188 23.1252L20.3812 22.5411L20.6435 21.9571L20.415 21.2017L20.1866 20.4464L20.6005 20.3366L21.0143 20.2265L21.2301 20.6356L21.4459 21.0449V21.8974V22.7499L21.0937 23.2599L20.7417 23.7701L21.4068 25.1394L22.0721 26.5088L22.4526 28.2176L22.8328 29.9263L23.0182 29.8101L23.2034 29.6939L23.769 28.5612L24.3349 27.4285L24.3451 26.1922L24.3556 24.956L23.891 24.0347L23.4264 23.1132L22.6251 22.4431L21.8238 21.7729L21.956 21.4235L22.0881 21.0739H22.3131H22.5378L23.4474 21.9058L24.3569 22.7377L24.8316 23.775L25.3063 24.8122L25.7064 24.125L26.1065 23.4378L26.1266 22.4941L26.1467 21.5504L25.6939 20.924L25.2409 20.2975L24.5461 19.9803L23.851 19.6629L23.8543 19.5367L23.8578 19.4102L24.0412 19.1165L24.2249 18.8228L24.9672 19.1602L25.7095 19.4976L26.0584 19.7867L26.4076 20.0757L26.769 20.7856L27.1306 21.4956V22.4009V23.3064L26.8359 24.0203L26.541 24.7342L25.9941 25.3996L25.4473 26.0651L25.2993 27.0283L25.1513 27.9915L24.7083 28.8724L24.2653 29.7535L24.7205 29.5062L25.1758 29.2591L25.547 30.1022L25.918 30.9454L25.9231 32.6276L25.9281 34.3097L26.4627 34.2505L26.9975 34.1915L27.4066 33.6777L27.8156 33.1637L28.2335 32.2764L28.6515 31.3891L28.6563 30.7719L28.6611 30.1548L28.3596 29.4228L28.0581 28.6907L27.5089 28.2653L26.9594 27.8398L26.5687 27.6038L26.178 27.3677L26.3186 26.9962L26.4592 26.6246L27.0406 26.8489L27.6219 27.0731L27.9278 26.6801L28.2337 26.287L28.6738 25.4482L29.1142 24.6097L29.3033 23.5822L29.4926 22.5547L29.2158 21.4724L28.9392 20.3903L28.4346 19.8454L27.93 19.3004L27.2023 19.0335L26.4747 18.7665V18.3674V17.9683H26.9229H27.3709L27.9836 18.2897L28.5962 18.6112L29.2727 19.3929L29.9491 20.1744L30.1785 21.0125L30.4079 21.8504L30.409 22.4189L30.4103 22.9875L31.0323 23.5922L31.6546 24.1969L31.8795 23.9109L32.1047 23.625L32.4852 22.8657L32.8658 22.1061V21.0258V19.9453L32.4578 19.4792L32.0501 19.0131L31.1079 18.5854L30.1658 18.1578L30.2504 17.8967L30.3353 17.6356L30.8178 17.5637L31.3004 17.4918L32.248 18.0553L33.1958 18.6187L33.5522 19.3807L33.9085 20.1427V20.7363V21.3299L34.5949 22.0263L35.2812 22.7226L35.5521 23.3763L35.823 24.0298L36.4301 23.099L37.0373 22.1682L37.0581 21.194L37.0788 20.2194L36.626 19.593L36.1732 18.9665L35.4235 18.5788L34.6738 18.1908L34.4704 18.1218L34.2671 18.0526L34.409 17.6777L34.5507 17.3028H34.681H34.8113L35.8993 17.7775ZM55.5541 17.7163V17.908L54.7224 18.4927L53.8907 19.0775H53.7385H53.5863L53.5892 18.8002L53.592 18.5229L54.2997 18.0375L55.0075 17.5522L55.2808 17.5384L55.5541 17.5246V17.7163ZM56.21 18.9448V19.2558L55.5008 19.7115L54.7915 20.1671L54.5715 19.9413L54.3516 19.7152L54.6795 19.5225L55.0075 19.3297L55.4448 18.9887L55.8821 18.648L56.046 18.6409L56.21 18.6338V18.9448ZM43.8568 22.6316V24.3664L43.1822 25.3366L42.5077 26.3069L42.675 26.7406L42.842 27.1743L42.8576 28.346L42.8729 29.5177L42.5661 30.2626L42.2593 31.0073L41.4849 31.8771L40.7105 32.7467L40.9823 33.827L41.2538 34.9075L42.1662 34.0712L43.0784 33.2349L43.6584 32.0322L44.2385 30.8294L44.1429 29.6608L44.0474 28.4922L43.4671 27.6257L42.8866 26.7592L43.1274 26.4649L43.3681 26.1705L43.6617 26.4176L43.9551 26.665L44.5988 26.0119L45.2425 25.3588L45.4758 24.4797L45.7091 23.6006L45.5001 22.8612L45.2913 22.1219L44.9043 21.6884L44.5175 21.2547L44.1871 21.0759L43.8568 20.8971V22.6316ZM57.0846 21.2958V21.5176H56.8839H56.6832L56.3373 21.6523L55.9914 21.7869V21.4304V21.0739H56.538H57.0846V21.2958ZM33.5546 22.9744L33.4019 23.4032L32.711 24.4014L32.0199 25.3996L32.1102 25.812L32.2007 26.2244L31.8378 27.188L31.475 28.1519L30.7164 28.8276L29.9577 29.5035H29.7467H29.5357V30.6049V31.7063L29.9662 31.9399L30.3965 32.1737L30.9501 33.1318L31.5035 34.0901V34.5566V35.0231L31.7359 35.1689L31.9683 35.3146L32.3927 34.9248L32.8171 34.5353L33.3897 33.3479L33.9623 32.1604L33.8628 30.9432L33.7634 29.7258L33.6363 29.5969L33.5093 29.468L32.9745 29.8236L32.4397 30.179L32.1555 29.8314L31.8712 29.4838L32.3979 29.1171L32.9246 28.7504L33.6309 27.9793L34.3369 27.2085L34.5854 26.4445L34.8338 25.6807L34.7295 24.5789L34.6252 23.477L34.1661 23.0112L33.707 22.5453L33.5546 22.9744ZM29.9787 24.9385L29.7318 25.6973L29.0733 26.6197L28.4147 27.5421L28.7617 28.0791L29.1085 28.6162H29.3934H29.678L30.1262 28.1171L30.5742 27.618L30.8202 27.1335L31.0662 26.6488V26.0687V25.4886L30.7325 24.834L30.3991 24.1796H30.3123H30.2255L29.9787 24.9385ZM81.7911 25.8271V26.1439L80.0967 26.8036L78.4022 27.4631L74.074 29.0579L69.7459 30.6524L69.3965 30.5164L69.0474 30.3804L69.1385 30.2877L69.2299 30.1952L74.0346 28.4143L78.8395 26.6335L80.1513 26.0915L81.4632 25.5498L81.6272 25.5301L81.7911 25.5106V25.8271ZM40.0316 26.3963L39.5657 27.0603L39.6925 27.2688L39.8195 27.4773L40.0174 28.5459L40.215 29.6144L40.0285 30.6127L39.842 31.6109L39.6855 32.0546L39.5287 32.4982L40.4337 31.6231L41.3386 30.748L41.6974 29.7948L42.0564 28.8416L41.9401 27.9629L41.824 27.0842L41.3496 26.4083L40.8754 25.7324H40.6864H40.4975L40.0316 26.3963ZM35.5547 26.5658L35.4049 27.1743L34.8494 27.9152L34.2936 28.6561L34.5382 29.2012L34.7831 29.7462V30.1794V30.6127H35.0931H35.4034L35.8304 29.8917L36.2574 29.1708L36.4011 28.5525L36.5447 27.9341L36.3138 27.0645L36.0832 26.1947L35.8936 26.076L35.7042 25.9573L35.5547 26.5658ZM13.8138 27.127L14.7774 27.6346L15.3952 28.8462L16.0131 30.0581L15.8935 31.1468L15.7737 32.2356L15.2205 33.0834L14.6676 33.9313L13.7613 34.4004L12.8551 34.8696L11.7866 34.8612L10.7183 34.8528L9.80675 34.341L8.89523 33.8292L8.26401 32.6092L7.63301 31.3891L7.76245 30.4088L7.89188 29.4285L8.43171 28.494L8.97154 27.5594L9.90667 27.0898L10.8418 26.6202L11.846 26.6199L12.85 26.6197L13.8138 27.127ZM44.786 27.0811L44.4034 27.3072L44.7748 28.0173L45.1463 28.7271V29.9472L45.1461 31.1673L44.685 32.2045L44.2236 33.2416L43.3316 34.2236L42.4393 35.2057L42.9037 35.6267L43.3681 36.0475L43.7337 36.9133L44.0992 37.7789L44.7879 36.7243L45.4764 35.6695L45.628 34.6445L45.7795 33.6194L45.5571 32.774L45.3348 31.9284L45.689 31.7442L46.0432 31.5599L46.2957 31.6524L46.5485 31.7449L46.8132 30.9306L47.078 30.1164L46.9647 29.0962L46.8515 28.076L46.1706 27.4587L45.4896 26.8415L45.3291 26.8482L45.1686 26.8551L44.786 27.0811ZM81.3539 28.0173V28.3054L79.6594 28.8181L77.9649 29.3307L73.7114 30.5255L69.4582 31.7203L69.2332 31.492L69.008 31.2635L69.4416 31.1413L69.8752 31.0191L75.3412 29.4024L80.8073 27.7854L81.0806 27.7573L81.3539 27.7289V28.0173ZM38.118 28.4955L37.4079 28.9918L36.858 30.0412L36.3079 31.0907L36.7297 31.6917L37.1514 32.2926L37.3493 33.061L37.547 33.8292L38.1124 32.9237L38.6778 32.018L38.9157 31.1491L39.1535 30.2799L39.1393 29.5035L39.1251 28.7271L38.9767 28.3631L38.828 27.9993L38.118 28.4955ZM11.0292 28.8363L10.5606 29.0279L10.2093 29.537L9.85791 30.0459V30.7606V31.4752L10.3499 32.0497L10.8418 32.6242L11.6318 32.7516L12.4215 32.8791L13.1515 32.2174L13.8816 31.5555L13.8578 30.7021L13.8339 29.8485L13.1544 29.2322L12.4746 28.6162L11.9862 28.6302L11.4977 28.6444L11.0292 28.8363ZM81.0626 30.2808L81.1357 30.5033L78.4571 31.1076L75.7785 31.7116L73.2641 32.1593L70.7497 32.6067L70.1485 32.7365L69.5472 32.8663V32.5422V32.2178L71.6789 31.8365L73.8107 31.4552L76.4344 30.9215L79.0581 30.388L79.714 30.1841L80.37 29.9805L80.6798 30.0193L80.9896 30.0581L81.0626 30.2808ZM47.3635 31.9028L46.7162 32.9419L46.7076 33.8842L46.6991 34.8266L46.9177 34.825L47.1364 34.8235L47.7108 35.5327L48.2853 36.2416L48.6837 35.4792L49.0821 34.7165L49.093 33.3356L49.1042 31.9548L48.5576 31.4095L48.0109 30.864L47.3635 31.9028ZM50.155 31.299L49.916 31.5415L50.1246 32.3081L50.3331 33.0748L50.088 34.2727L49.8429 35.4706L49.306 36.2734L48.769 37.0764L48.8947 37.2829L49.0206 37.4894H49.2465H49.4726L50.0327 37.0422L50.5931 36.595L51.1106 35.8834L51.6279 35.172L51.8389 34.3774L52.0497 33.583L51.8394 32.8387L51.629 32.0945L51.1485 31.5754L50.6677 31.0563H50.531H50.3941L50.155 31.299ZM34.923 31.744L34.833 32.0546L34.5833 32.9885L34.3334 33.9226L33.5939 34.9058L32.8542 35.8887L33.3267 36.8599L33.7992 37.8311L34.1057 37.8266L34.4123 37.8222L34.8461 36.9739L35.2799 36.1258L35.0135 35.2237L34.7472 34.3217L35.0365 34.14L35.326 33.9585L35.5466 34.181L35.767 34.4033L36.0086 35.1145L36.2502 35.8257L36.4098 34.8876L36.5692 33.9492L36.3256 33.201L36.0823 32.4525L35.5477 31.943L35.0131 31.4334L34.923 31.744ZM28.7753 33.4053L28.3526 34.2015L27.8513 34.6016L27.3497 35.0018L27.782 35.9683L28.2142 36.9349L28.219 37.6003L28.2238 38.2658H28.8035H29.3833L29.9231 37.438L30.4632 36.6103L30.5732 35.619L30.6833 34.6278L30.1002 33.6185L29.5173 32.6092H29.3575H29.1979L28.7753 33.4053ZM39.0838 33.1937L38.756 33.8292L37.972 34.5937L37.1882 35.3581V35.5513V35.7443L37.777 36.5276L38.366 37.3111L38.4587 38.613L38.5516 39.9152L38.1229 40.7543L37.6943 41.5933L38.2143 42.1479L38.734 42.7025L38.8592 43.2016L38.9848 43.7007H39.1638H39.3429L39.7902 43.1237L40.2376 42.5465L40.3716 41.8227L40.5054 41.0986L40.0224 39.9595L39.5394 38.8204H39.4002H39.2611L38.9931 38.3847L38.7248 37.9491L39.2635 37.3594L39.802 36.7698L39.9444 36.0003L40.0867 35.2305L39.9551 34.1032L39.8235 32.9758L39.6177 32.7671L39.4118 32.5581L39.0838 33.1937ZM80.5886 32.9419V33.1637L77.6369 33.4091L74.6853 33.6546L72.1162 33.8135L69.5472 33.9721V33.6646V33.3569L74.3027 33.0122L79.0581 32.6673L79.8234 32.6937L80.5886 32.7201V32.9419ZM77.8009 34.7405L81.1352 34.8843V35.1704V35.4566L78.5662 35.3581L75.9971 35.2594L72.8815 35.1314L69.7658 35.0032V34.6649V34.3268L72.1162 34.4619L74.4666 34.597L77.8009 34.7405ZM40.8939 36.3259L40.6311 37.1567L40.3147 37.5249L39.9984 37.8932L40.5563 38.7485L41.1143 39.6042L41.2571 40.3293L41.4001 41.0545L41.8308 40.659L42.2618 40.2634L42.5672 39.6638L42.8729 39.0642V38.0851V37.1057L42.4185 36.5198L41.9644 35.9337L41.5606 35.7146L41.157 35.4954L40.8939 36.3259ZM46.2852 36.032L46.1527 36.5679L45.3949 37.5751L44.6373 38.582L44.866 38.7255L45.0947 38.8688L45.4856 39.5212L45.8768 40.1734L46.4435 39.4901L47.0102 38.8067L47.2278 38.007L47.4455 37.2075L47.1493 36.4883L46.853 35.7689L46.6355 35.6325L46.4177 35.4961L46.2852 36.032ZM75.7785 36.3647L80.37 37.0223L81.0091 37.0895L81.6481 37.1567L81.7378 37.434L81.8277 37.7113L81.3173 37.7106L80.8073 37.7097L76.2158 37.0431L71.6243 36.3765L70.9684 36.2749L70.3124 36.1733L71.6243 36.6232L72.9361 37.0728L77.6975 38.4701L82.4587 39.8675L82.5936 40.0041L82.7282 40.141L82.4051 40.2668L82.0817 40.3928L77.1809 38.958L72.2802 37.5232L71.8429 37.3628L71.4056 37.2024L71.6243 37.428L71.8429 37.6536L73.5921 38.6115L75.3412 39.5693L79.0537 41.5106L82.7663 43.452L82.8435 43.6874L82.9209 43.9225H82.6699H82.4191L79.1631 42.2493L75.9071 40.576L74.0936 39.5669L72.2802 38.558L71.2963 38.0096L70.3124 37.4615L70.6529 37.7527L70.9935 38.044L74.3698 40.6095L77.7463 43.175L80.6433 45.2267L83.5403 47.2782V47.486V47.6937H83.3334H83.1268L80.5458 45.8824L77.9649 44.0712L75.0793 41.9147L72.1936 39.7583L71.0908 38.9012L69.9882 38.044L70.0724 37.6665L70.1568 37.2889L69.9954 37.2228L69.834 37.1567L69.9346 36.3128L70.035 35.469L70.6111 35.5881L71.187 35.7072L75.7785 36.3647ZM31.4123 36.471L31.2669 37.2574L30.5565 38.2053L29.8464 39.1532L30.1284 39.7077L30.4105 40.2623L30.5491 41.1028L30.6875 41.9431L30.9186 41.8651L31.1499 41.7867L31.8004 40.9713L32.4511 40.1558L32.5431 38.989L32.6349 37.8222L32.3879 37.2676L32.1406 36.713L31.8491 36.1988L31.5577 35.6846L31.4123 36.471ZM35.9804 36.8519L35.819 37.3785L35.4323 37.9362L35.0455 38.4939L35.4581 39.011L35.8706 39.5278L36.098 40.385L36.3256 41.2419L36.6306 41.1232L36.9359 41.0043L37.3054 40.2142L37.6749 39.4242L37.557 38.5329L37.4392 37.6418L36.7905 36.9834L36.1415 36.3253L35.9804 36.8519ZM33.5075 39.6348L33.2373 40.6592L32.8295 41.2404L32.4218 41.8214L32.8344 42.3384L33.2469 42.8553L33.4824 43.7431L33.7181 44.6308L34.1637 44.2218L34.6093 43.8127L34.9147 43.2131L35.2204 42.6135V41.5933V40.5731L34.9147 39.9735L34.6093 39.3739L34.1934 38.9921L33.7776 38.6103L33.5075 39.6348ZM27.785 39.8741L27.3259 40.9278L26.7826 41.5035L26.239 42.0793L26.5418 42.3342L26.8444 42.5889L27.2323 43.4618L27.6204 44.3347L28.0524 44.3016L28.4847 44.2686L29.0101 43.6348L29.5357 43.0013L29.5589 42.4081L29.5821 41.8151L29.5429 41.1496L29.5038 40.4842L28.9701 39.6523L28.4364 38.8204H28.3404H28.2444L27.785 39.8741ZM76.2193 44.7227L77.7463 46.0776L79.9327 48.0335L82.1191 49.9894L82.1854 50.1522L82.2516 50.315L82.0553 50.4382L81.8589 50.5613L77.1789 46.3869L72.4989 42.2122L70.9843 40.7807L69.4698 39.349L69.6316 39.0833L69.7934 38.8178L72.2428 41.0929L74.6921 43.368L76.2193 44.7227ZM36.1236 42.679L35.8761 43.6763L35.357 44.2886L34.838 44.9008L35.3846 45.3369L35.9312 45.7733L36.3103 46.632L36.6892 47.4907L37.376 46.6972L38.0627 45.9035V44.9021V43.9006L37.7555 43.3014L37.4484 42.7025L36.9098 42.192L36.3711 41.6816L36.1236 42.679ZM58.7176 42.1368L58.846 42.3475L58.417 42.5805L57.9878 42.8134H57.6456H57.3032V42.6255V42.4376L57.7952 42.1967L58.2871 41.956L58.4382 41.9411L58.5893 41.9261L58.7176 42.1368ZM58.4964 43.9072L58.6223 44.1138L58.4546 44.2185L58.2871 44.3229L57.2486 44.4807L56.21 44.6384V44.2945V43.9507L56.9206 43.8611L57.6312 43.7717L58.0009 43.7362L58.3706 43.7007L58.4964 43.9072ZM57.3673 45.38L58.4155 45.5286L58.3457 45.7404L58.2762 45.9523L58.1148 45.964L57.9537 45.9758L56.4258 45.823L54.8982 45.6703V45.3263V44.9822L55.6088 45.1067L56.3193 45.2311L57.3673 45.38ZM56.5926 46.5033L57.7405 46.8378V47.1786V47.5193L57.3966 47.3855L57.0529 47.2515L55.6475 46.8716L54.2422 46.4918V46.1812V45.8709L54.8435 46.0199L55.4448 46.169L56.5926 46.5033ZM55.5443 47.3966L57.3203 48.2088L57.0995 48.4328L56.8786 48.6569L55.0138 47.8139L53.149 46.9707V46.7777V46.5845H53.4586H53.768L55.5443 47.3966ZM56.6327 49.1775L56.7276 49.2538L56.5107 49.4739L56.2938 49.6939L54.2296 48.7857L52.1651 47.8776L52.0886 47.8004L52.0121 47.7232L52.1444 47.506L52.2767 47.2888L54.4073 48.1948L56.538 49.101L56.6327 49.1775ZM52.7846 49.1198L54.9248 49.7114L55.4938 49.9308L56.0627 50.1502L55.8591 50.3567L55.6555 50.5633L52.8171 49.7662L49.9787 48.9692L49.9022 48.9009L49.8257 48.8323L49.9789 48.5805L50.1322 48.329L50.3882 48.4286L50.6443 48.5282L52.7846 49.1198ZM52.2974 50.6032L55.1168 51.7179V51.9242V52.1303H54.838H54.5595L51.5164 50.9484L48.4734 49.7664L48.3776 49.4752L48.2818 49.1839L48.8798 49.3361L49.4778 49.4885L52.2974 50.6032ZM49.1767 50.9981L50.6347 51.6407L52.3291 52.3499L54.0236 53.0591V53.2601V53.4613H53.7632H53.503L50.4836 52.2004L47.4643 50.9393V50.6476V50.3556H47.5916H47.7191L49.1767 50.9981ZM49.6702 52.739L52.4931 54.4568V54.7355V55.0141H52.3836H52.274L49.3226 53.2312L46.3711 51.4484V51.2348V51.0211H46.6092H46.8473L49.6702 52.739ZM33.3497 53.1536L34.3841 53.9548L34.1558 54.1864L33.9276 54.418L32.9343 53.5919L31.9408 52.766V52.5591V52.3521H32.1279H32.3151L33.3497 53.1536ZM36.4583 56.8934L38.3907 58.1871L38.4672 58.2495L38.5438 58.312L38.3953 58.5558L38.2468 58.7996L37.4442 58.3094L36.6416 57.8194L34.8924 56.5378L33.1433 55.2565L31.9574 54.1784L30.7712 53.1006L30.9287 52.8421L31.0859 52.5839L32.8059 54.0919L34.526 55.5999L36.4583 56.8934ZM31.1838 54.3654L32.2687 55.4912L34.3006 57.1732L36.3322 58.8551L36.1135 59.0769L35.8949 59.2987L33.8508 57.6133L31.8065 55.928L30.7804 54.8151L29.7543 53.7022V53.4708V53.2394H29.9266H30.0987L31.1838 54.3654ZM28.875 55.0057L29.764 56.5503L31.0437 58.1667L32.3232 59.7834L33.2253 60.6603L34.1272 61.5372V61.714V61.8908H33.8324H33.5377L32.3507 60.6153L31.1637 59.3398L30.3696 58.3415L29.5753 57.3433L28.5717 55.6898L27.5679 54.0363V53.7488V53.4613H27.7769H27.986L28.875 55.0057ZM29.7465 54.5218L30.5041 55.5687L32.87 57.9354L35.2359 60.3021L34.995 60.4532L34.754 60.6042L34.6045 60.4496L34.4551 60.295L32.8433 58.8192L31.2315 57.3433L29.846 55.5884L28.4602 53.8335L28.5737 53.6474L28.6869 53.4613L28.838 53.4681L28.9891 53.475L29.7465 54.5218Z" fill="#DCC49F"/>
</svg>