<svg width="30" height="30" viewBox="0 0 30 30" fill="none" xmlns="http://www.w3.org/2000/svg">
<path fill-rule="evenodd" clip-rule="evenodd" d="M29.0909 4.10771C29.0909 1.83909 27.2518 0 24.9832 0H4.10771C1.83909 0 0 1.83909 0 4.10771V24.9832C0 27.2519 1.83909 29.0909 4.10771 29.0909H24.9832C27.2518 29.0909 29.0909 27.2519 29.0909 24.9832V4.10771ZM24.1003 12.6879C22.2234 12.7088 20.4745 12.1414 18.9389 11.0905V18.4677C18.9389 21.7465 16.6946 24.563 13.5209 25.2986C9.19116 26.2864 5.52586 23.1548 5.06356 19.4137C4.58015 15.6724 6.96618 12.3936 10.6233 11.658C11.3379 11.5109 12.4127 11.5109 12.9672 11.637V15.5883C12.7966 15.5464 12.6368 15.5043 12.4687 15.4833C11.0395 15.2311 9.6552 15.9457 9.08771 17.2488C8.52026 18.552 8.90007 20.0652 10.056 20.948C11.0228 21.7046 12.0955 21.8096 13.1884 21.3052C14.2814 20.8219 14.8688 19.9391 14.9948 18.7411C15.0158 18.5731 15.0147 18.3838 15.0147 18.1947V4.00749C15.0147 3.60818 15.0178 3.6256 15.4171 3.6256H18.5488C18.78 3.6256 18.8641 3.65887 18.8851 3.93225C19.0532 6.37033 20.9043 8.44669 23.2792 8.762C23.5315 8.804 23.8017 8.82065 24.1003 8.84164V12.6879Z" fill="white" fill-opacity="0.8"/>
</svg>
