<svg width="14" height="14" viewBox="0 0 14 14" fill="none" xmlns="http://www.w3.org/2000/svg">
<path fill-rule="evenodd" clip-rule="evenodd" d="M7.06667 6.33533L9.66067 8.92933L9.09533 9.49533L6.26667 6.66667V2.66667H7.06667V6.33533ZM6.66667 13.3333C2.98467 13.3333 0 10.3487 0 6.66667C0 2.98467 2.98467 0 6.66667 0C10.3487 0 13.3333 2.98467 13.3333 6.66667C13.3333 10.3487 10.3487 13.3333 6.66667 13.3333ZM6.66667 12.5333C8.2226 12.5333 9.71481 11.9152 10.815 10.815C11.9152 9.71481 12.5333 8.2226 12.5333 6.66667C12.5333 5.11073 11.9152 3.61852 10.815 2.51831C9.71481 1.41809 8.2226 0.8 6.66667 0.8C5.11073 0.8 3.61852 1.41809 2.51831 2.51831C1.41809 3.61852 0.8 5.11073 0.8 6.66667C0.8 8.2226 1.41809 9.71481 2.51831 10.815C3.61852 11.9152 5.11073 12.5333 6.66667 12.5333Z" fill="white"/>
</svg>
